<?xml version="1.0" encoding="UTF-8"?> <!-- Generator: Adobe Illustrator 22.1.0, SVG Export Plug-In . SVG Version: 6.00 Build 0) --> <svg xmlns="http://www.w3.org/2000/svg" xmlns:xlink="http://www.w3.org/1999/xlink" version="1.1" x="0px" y="0px" viewBox="0 0 1633 1628" style="enable-background:new 0 0 1633 1628;" xml:space="preserve"> <style type="text/css"> .st0{fill:#343434;} .st1{fill:none;stroke:#343434;stroke-width:8;stroke-miterlimit:10;} .st2{fill:#FF4528;} .st3{fill:#6973CA;} .st4{fill:#FFB200;} .st5{fill:none;} .st6{fill:none;stroke:#00D59E;stroke-width:10;stroke-miterlimit:10;} .st7{fill:#00D59E;} </style> <g id="Warstwa_1"> <g> <line class="st0" x1="66" y1="1628" x2="66" y2="0"></line> <g> <line class="st1" x1="66" y1="1628" x2="66" y2="40.2"></line> <g> <polygon class="st0" points="93.9,48.4 66,0 38.1,48.4 "></polygon> </g> </g> </g> <g> <line class="st0" x1="5" y1="1567" x2="1633" y2="1567"></line> <g> <line class="st1" x1="5" y1="1567" x2="1592.8" y2="1567"></line> <g> <polygon class="st0" points="1584.7,1594.9 1633,1567 1584.7,1539.1 "></polygon> </g> </g> </g> <g> <g> <path class="st2" d="M258.8,917.4c15.3,0,15.3-23.8,0-23.8C243.4,893.6,243.4,917.4,258.8,917.4L258.8,917.4z"></path> </g> </g> <g> <path class="st2" d="M5.9,1539c-4-5.5-5.9-13.6-5.9-24.3c0-10.6,2-18.6,5.9-24.2s9.7-8.3,17.2-8.3c7.5,0,13.2,2.8,17.2,8.3 s5.9,13.6,5.9,24.2c0,10.6-2,18.6-5.9,24.2c-4,5.6-9.7,8.4-17.2,8.4C15.6,1547.4,9.9,1544.6,5.9,1539z M32,1532.7 c1.9-3.7,2.8-9.7,2.8-17.9c0-8.2-0.9-14.2-2.8-17.9c-1.9-3.7-4.8-5.5-8.9-5.5c-4.1,0-7.1,1.9-8.9,5.6c-1.9,3.7-2.8,9.7-2.8,17.8 c0,8.2,0.9,14.1,2.8,17.9c1.9,3.8,4.8,5.6,8.9,5.6C27.2,1538.3,30.2,1536.4,32,1532.7z"></path> </g> <g> <path class="st2" d="M149.7,47.9c0.8-0.5,1.7-0.8,2.7-0.8c1.4,0,2.6,0.5,3.7,1.4c1.1,0.9,1.7,2.1,1.7,3.5c0,0.7-0.2,1.4-0.5,2.1 l-24.6,51.5c-1,2-2.6,3.1-4.8,3.1c-1.4,0-2.6-0.4-3.6-1.3c-1.1-0.9-1.6-2-1.6-3.3c0-0.7,0.2-1.4,0.5-2.3l6.1-12.9l-16.7-34.8 c-0.3-0.6-0.5-1.3-0.5-2.1c0-1.4,0.6-2.5,1.8-3.5c1.2-1,2.5-1.4,4-1.4c1,0,1.9,0.3,2.8,0.8c0.8,0.5,1.5,1.3,2,2.4L135.2,78 l12.5-27.7C148.2,49.2,148.9,48.4,149.7,47.9z"></path> </g> <g> <path class="st2" d="M1576.5,1519c0,1.3-0.5,2.5-1.5,3.6c-1,1-2.2,1.6-3.6,1.6c-1.5,0-2.8-0.6-3.9-1.9l-12.7-14l-12.7,14 c-1.1,1.2-2.4,1.8-3.9,1.8c-1.3,0-2.5-0.5-3.5-1.5c-1-1-1.5-2.2-1.5-3.5c0-1.4,0.5-2.6,1.6-3.7l13.1-14.3l-12.4-13.5 c-1.1-1.1-1.6-2.3-1.6-3.7c0-1.4,0.5-2.6,1.5-3.6c1-1,2.2-1.5,3.5-1.5c1.4,0,2.7,0.6,3.9,1.8l12,13.1l12-13.1 c1.1-1.2,2.4-1.8,3.9-1.8c1.4,0,2.6,0.5,3.6,1.5s1.5,2.2,1.5,3.6c0,1.4-0.5,2.6-1.6,3.7l-12.4,13.5l13.2,14.3 C1576,1516.4,1576.5,1517.6,1576.5,1519z"></path> </g> <g> <path class="st3" d="M930.8,156.7c2,2.7,3,6,3,9.9c0,5.4-1.9,9.6-5.8,12.7c-3.9,3.1-9.2,4.6-16,4.6h-23.2c-1.7,0-3.1-0.5-4.1-1.4 c-1-1-1.5-2.3-1.5-4v-52.5c0-1.7,0.5-3.1,1.5-4c1-1,2.4-1.4,4.1-1.4h22.3c6.6,0,11.8,1.5,15.5,4.4c3.7,2.9,5.6,7,5.6,12.2 c0,3.4-0.9,6.3-2.7,8.7c-1.8,2.5-4.2,4.3-7.3,5.4C926,152.2,928.8,154,930.8,156.7z M894.6,147.2h14.7c8,0,12-3,12-8.9 c0-3-1-5.2-3-6.7c-2-1.4-5-2.2-9-2.2h-14.7V147.2z M920,172.7c1.9-1.5,2.9-3.8,2.9-7c0-3.2-1-5.5-2.9-7.1c-2-1.6-5-2.3-9.1-2.3 h-16.2v18.7h16.2C915,174.9,918,174.2,920,172.7z"></path> <path class="st3" d="M944.6,152c-0.8-0.7-1.1-1.7-1.1-2.8c0-1.1,0.4-2.1,1.1-2.8c0.7-0.7,1.7-1.1,2.8-1.1h36 c1.1,0,2.1,0.4,2.8,1.2c0.8,0.8,1.1,1.7,1.1,2.9c0,1.1-0.4,2-1.1,2.7c-0.8,0.8-1.7,1.1-2.8,1.1h-36 C946.3,153.1,945.3,152.7,944.6,152z M944.6,170c-0.8-0.7-1.1-1.7-1.1-2.8c0-1.1,0.4-2.1,1.1-2.8c0.7-0.7,1.7-1.1,2.8-1.1h36 c1.1,0,2.1,0.4,2.8,1.2c0.8,0.8,1.1,1.7,1.1,2.9c0,1.1-0.4,2-1.1,2.7c-0.8,0.8-1.7,1.1-2.8,1.1h-36 C946.3,171.1,945.3,170.7,944.6,170z"></path> <path class="st3" d="M1001,160.2c0-13.4,3.2-25.7,9.7-36.9c0.7-1.1,1.5-2,2.5-2.6c0.9-0.6,1.9-0.9,2.8-0.9c1,0,1.9,0.3,2.6,0.9 c0.7,0.6,1,1.5,1,2.6c0,0.8-0.2,1.6-0.5,2.3c-4.4,10.9-6.7,22.4-6.7,34.6c0,6.1,0.5,11.9,1.6,17.5c1.1,5.6,2.8,11.2,5,16.9 c0.3,0.7,0.5,1.4,0.5,2.3c0,1.1-0.3,1.9-1,2.6c-0.7,0.6-1.5,0.9-2.6,0.9c-1,0-1.9-0.3-2.9-0.8c-1-0.5-1.8-1.4-2.4-2.5 C1004.2,185.7,1001,173.4,1001,160.2z"></path> <path class="st3" d="M1069.2,179.3c0,1.3-0.5,2.5-1.5,3.6c-1,1-2.2,1.6-3.6,1.6c-1.5,0-2.8-0.6-3.9-1.9l-12.7-14l-12.7,14 c-1.1,1.2-2.4,1.8-3.9,1.8c-1.3,0-2.5-0.5-3.5-1.5c-1-1-1.5-2.2-1.5-3.5c0-1.4,0.5-2.6,1.6-3.7l13.1-14.3l-12.4-13.5 c-1.1-1.1-1.6-2.3-1.6-3.7c0-1.4,0.5-2.6,1.5-3.6c1-1,2.2-1.5,3.5-1.5c1.4,0,2.7,0.6,3.9,1.8l12,13.1l12-13.1 c1.1-1.2,2.4-1.8,3.9-1.8c1.4,0,2.6,0.5,3.6,1.5s1.5,2.2,1.5,3.6c0,1.4-0.5,2.6-1.6,3.7l-12.4,13.5l13.2,14.3 C1068.6,176.7,1069.2,177.9,1069.2,179.3z"></path> <path class="st3" d="M1111.8,173.2c1.3,1.5,1.9,3.7,1.9,6.6c0,5.7-2,10.6-5.9,14.8c-0.8,0.8-1.6,1.2-2.5,1.2 c-0.9,0-1.7-0.3-2.3-0.9c-0.7-0.6-1-1.3-1-2.2c0-0.7,0.3-1.4,0.9-2.1c1.8-1.9,3-4.1,3.5-6.5c-1.7-0.2-3.2-0.9-4.3-2 c-1.1-1.2-1.7-2.6-1.7-4.4c0-1.9,0.6-3.5,1.8-4.8c1.2-1.3,2.8-1.9,4.6-1.9C1108.8,170.9,1110.5,171.7,1111.8,173.2z"></path> <path class="st3" d="M1181,139.8c0.8-0.5,1.7-0.8,2.7-0.8c1.4,0,2.6,0.5,3.7,1.4c1.1,0.9,1.7,2.1,1.7,3.5c0,0.7-0.2,1.3-0.5,2.1 l-24.6,51.5c-1,2-2.6,3.1-4.8,3.1c-1.4,0-2.6-0.4-3.6-1.3c-1.1-0.9-1.6-2-1.6-3.3c0-0.7,0.2-1.4,0.5-2.3l6.1-12.9l-16.7-34.8 c-0.3-0.6-0.4-1.3-0.4-2.1c0-1.4,0.6-2.5,1.8-3.5c1.2-1,2.5-1.4,4-1.4c1,0,1.9,0.3,2.8,0.8c0.8,0.5,1.5,1.3,2,2.4l12.6,27.8 l12.5-27.7C1179.6,141.2,1180.2,140.4,1181,139.8z"></path> <path class="st3" d="M1224.7,199.6c-1,0.5-1.9,0.8-2.9,0.8c-1,0-1.9-0.3-2.6-0.9c-0.7-0.6-1-1.5-1-2.6c0-0.8,0.1-1.6,0.5-2.3 c2.3-5.6,4-11.3,5-16.9c1.1-5.6,1.6-11.4,1.6-17.5c0-12.1-2.2-23.6-6.7-34.6c-0.3-0.7-0.5-1.4-0.5-2.3c0-1.1,0.3-1.9,1-2.6 c0.7-0.6,1.5-0.9,2.6-0.9c1,0,1.9,0.3,2.8,0.9c0.9,0.6,1.8,1.4,2.5,2.6c6.5,11.2,9.7,23.5,9.7,36.9c0,13.2-3.2,25.5-9.7,36.8 C1226.5,198.2,1225.7,199,1224.7,199.6z"></path> </g> <g> <path class="st3" d="M1098.2,183.1c1.1,1.4,1.6,3.2,1.6,5.3c0,2.8-1,5.1-3.1,6.8c-2.1,1.7-5,2.5-8.7,2.5h-12.6 c-1.1,0-2-0.3-2.6-0.9c-0.6-0.6-0.9-1.5-0.9-2.6v-26.8c0-1.1,0.3-2,0.9-2.6c0.6-0.6,1.5-0.9,2.6-0.9h12.1c3.5,0,6.3,0.8,8.4,2.4 c2.1,1.6,3.1,3.7,3.1,6.4c0,1.8-0.5,3.3-1.4,4.6c-0.9,1.3-2.2,2.3-3.9,2.9C1095.7,180.7,1097.2,181.7,1098.2,183.1z M1079.3,177.6 h7.1c1.9,0,3.3-0.3,4.2-1c0.9-0.7,1.4-1.7,1.4-3c0-1.4-0.5-2.4-1.4-3.1c-0.9-0.7-2.3-1-4.2-1h-7.1V177.6z M1091.5,190.9 c0.9-0.7,1.3-1.8,1.3-3.3c0-1.5-0.4-2.6-1.3-3.3c-0.9-0.7-2.3-1.1-4.3-1.1h-7.9v8.6h7.9C1089.2,191.9,1090.6,191.6,1091.5,190.9z"></path> </g> <g> <path class="st3" d="M1209.7,183c1.1,1.4,1.6,3.2,1.6,5.3c0,2.8-1,5.1-3.1,6.8c-2.1,1.7-5,2.5-8.7,2.5h-12.6c-1.1,0-2-0.3-2.6-0.9 c-0.6-0.6-0.9-1.5-0.9-2.6v-26.8c0-1.1,0.3-2,0.9-2.6c0.6-0.6,1.5-0.9,2.6-0.9h12.1c3.5,0,6.3,0.8,8.4,2.4 c2.1,1.6,3.1,3.7,3.1,6.4c0,1.8-0.5,3.3-1.4,4.6c-0.9,1.3-2.2,2.3-3.9,2.9C1207.1,180.5,1208.6,181.5,1209.7,183z M1190.7,177.4 h7.1c1.9,0,3.3-0.3,4.2-1c0.9-0.7,1.4-1.7,1.4-3c0-1.4-0.5-2.4-1.4-3.1c-0.9-0.7-2.3-1-4.2-1h-7.1V177.4z M1203,190.8 c0.9-0.7,1.3-1.8,1.3-3.3c0-1.5-0.4-2.6-1.3-3.3c-0.9-0.7-2.3-1.1-4.3-1.1h-7.9v8.6h7.9C1200.6,191.8,1202.1,191.4,1203,190.8z"></path> </g> <g> <path class="st4" d="M342.6,1407.6c0,1.7-0.7,3.1-2,4.3c-1.4,1.2-2.9,1.8-4.6,1.8c-1.1,0-2.2-0.3-3.2-0.9c-1-0.6-1.8-1.6-2.3-2.8 l-4.8-10.6H295l-4.8,10.6c-0.5,1.3-1.3,2.2-2.3,2.8c-1,0.6-2.1,0.9-3.3,0.9c-1.7,0-3.3-0.6-4.7-1.8c-1.4-1.2-2.1-2.6-2.1-4.3 c0-0.8,0.2-1.8,0.7-2.9l24.3-51c0.7-1.4,1.6-2.5,3-3.3c1.3-0.7,2.7-1.1,4.2-1.1c1.6,0,3,0.4,4.3,1.2c1.3,0.8,2.3,1.9,3.1,3.2 l24.3,51C342.3,1405.8,342.6,1406.8,342.6,1407.6z M299.8,1388.7h21l-10.4-23.4L299.8,1388.7z"></path> <path class="st4" d="M350.9,1381.8c-0.9-0.9-1.4-2-1.4-3.3c0-1.3,0.4-2.4,1.4-3.3c0.9-0.9,2-1.3,3.3-1.3h34.6 c1.3,0,2.4,0.4,3.3,1.3c0.9,0.9,1.4,2,1.4,3.3c0,1.3-0.5,2.4-1.4,3.3s-2,1.3-3.3,1.3h-34.6 C352.9,1383.2,351.8,1382.7,350.9,1381.8z M350.9,1399.8c-0.9-0.9-1.4-2-1.4-3.3c0-1.3,0.4-2.4,1.4-3.3c0.9-0.9,2-1.3,3.3-1.3 h34.6c1.3,0,2.4,0.4,3.3,1.3c0.9,0.9,1.4,2,1.4,3.3c0,1.3-0.5,2.4-1.4,3.3s-2,1.3-3.3,1.3h-34.6 C352.9,1401.2,351.8,1400.7,350.9,1399.8z"></path> <path class="st4" d="M406.9,1389.6c0-13.3,3.3-25.3,10-36c0.8-1.4,1.8-2.4,3-3.1c1.2-0.7,2.3-1,3.5-1c1.2,0,2.2,0.4,3,1.1 c0.8,0.8,1.2,1.8,1.2,3c0,0.8-0.2,1.7-0.5,2.7c-2.2,5.5-3.7,10.9-4.7,16.3c-1,5.4-1.5,11.1-1.5,17c0,5.9,0.5,11.6,1.5,16.9 c1,5.3,2.6,10.7,4.7,16.2c0.4,1,0.5,1.9,0.5,2.7c0,1.3-0.4,2.3-1.2,3c-0.8,0.7-1.8,1.1-3,1.1c-1.1,0-2.3-0.3-3.5-1 c-1.2-0.7-2.2-1.7-3-3.1C410.2,1414.8,406.9,1402.8,406.9,1389.6z"></path> <path class="st4" d="M478.4,1407.8c0,1.6-0.6,3-1.8,4.3c-1.2,1.2-2.7,1.8-4.3,1.8s-3.1-0.7-4.5-2.2l-11.7-12.6l-11.6,12.6 c-1.4,1.4-2.9,2.2-4.5,2.2c-1.7,0-3.1-0.6-4.4-1.8c-1.2-1.2-1.8-2.7-1.8-4.4c0-1.6,0.7-3,2-4.4l12.1-12.7l-11.3-11.8 c-1.3-1.4-2-2.8-2-4.4c0-1.7,0.6-3.1,1.8-4.3c1.2-1.2,2.7-1.8,4.3-1.8c1.7,0,3.2,0.7,4.6,2.2L456,1382l10.9-11.5 c1.4-1.4,2.9-2.2,4.6-2.2c1.6,0,3,0.6,4.3,1.8c1.2,1.2,1.8,2.6,1.8,4.3c0,1.6-0.7,3-2,4.4l-11.4,11.8l12.1,12.7 C477.7,1404.7,478.4,1406.2,478.4,1407.8z"></path> <path class="st4" d="M522.6,1400.9c1.4,1.7,2.2,4.2,2.2,7.4c0,6.2-2.3,11.7-6.8,16.4c-0.9,0.9-1.9,1.4-2.9,1.4c-1,0-1.9-0.3-2.7-1 c-0.8-0.7-1.1-1.5-1.1-2.5c0-0.9,0.3-1.7,1-2.3c2-2,3.3-4.3,4-6.8c-2-0.2-3.7-0.9-5-2.3c-1.3-1.3-1.9-3-1.9-5 c0-2.2,0.7-4.1,2.1-5.5c1.4-1.5,3.2-2.2,5.3-2.2C519.3,1398.4,521.2,1399.2,522.6,1400.9z"></path> <path class="st4" d="M591.6,1369.3c1-0.6,2.1-0.9,3.2-0.9c1.7,0,3.3,0.6,4.6,1.7c1.3,1.1,2,2.4,2,4c0,0.8-0.2,1.7-0.6,2.5 l-24.2,49.7c-0.6,1.3-1.4,2.2-2.4,2.8c-1,0.6-2.1,0.9-3.2,0.9c-1.7,0-3.2-0.5-4.4-1.6s-1.9-2.4-1.9-4c0-1,0.2-1.9,0.6-2.7 l5.9-12.3l-16-32.8c-0.4-0.8-0.5-1.6-0.5-2.4c0-1.6,0.7-3,2.1-4.1c1.4-1.1,3-1.7,4.8-1.7c1.2,0,2.3,0.3,3.3,0.9 c1,0.6,1.8,1.6,2.4,2.8l11.2,24.3l10.9-24.3C589.9,1370.8,590.6,1369.9,591.6,1369.3z"></path> <path class="st4" d="M639,1428.6c-1.2,0.7-2.3,1-3.5,1c-1.2,0-2.2-0.4-3-1.1c-0.8-0.8-1.2-1.8-1.2-3c0-0.8,0.2-1.7,0.5-2.7 c2.2-5.5,3.7-10.9,4.7-16.2c1-5.3,1.5-11,1.5-16.9c0-5.9-0.5-11.6-1.5-17c-1-5.4-2.6-10.8-4.7-16.3c-0.4-1-0.5-1.9-0.5-2.7 c0-1.3,0.4-2.3,1.2-3c0.8-0.8,1.8-1.1,3-1.1c1.1,0,2.3,0.3,3.5,1c1.2,0.7,2.2,1.7,3,3.1c6.6,10.6,9.9,22.6,9.9,36 c0,13.3-3.3,25.3-9.9,35.8C641.1,1426.8,640.1,1427.9,639,1428.6z"></path> </g> <g> <path class="st4" d="M510.3,1430c0,0.9-0.4,1.7-1.1,2.3c-0.7,0.6-1.5,0.9-2.5,0.9c-0.6,0-1.2-0.2-1.7-0.5c-0.5-0.3-1-0.8-1.2-1.5 l-2.5-5.7H485l-2.5,5.7c-0.3,0.7-0.7,1.2-1.2,1.5c-0.5,0.3-1.1,0.5-1.8,0.5c-0.9,0-1.8-0.3-2.5-0.9c-0.7-0.6-1.1-1.4-1.1-2.3 c0-0.4,0.1-1,0.4-1.5l13-27.2c0.4-0.8,0.9-1.4,1.6-1.8c0.7-0.4,1.5-0.6,2.3-0.6c0.8,0,1.6,0.2,2.3,0.6c0.7,0.4,1.2,1,1.6,1.7 l13,27.2C510.2,1429,510.3,1429.5,510.3,1430z M487.5,1419.8h11.2l-5.6-12.5L487.5,1419.8z"></path> </g> <g> <path class="st4" d="M620.3,1430c0,0.9-0.4,1.7-1.1,2.3s-1.5,0.9-2.5,0.9c-0.6,0-1.2-0.2-1.7-0.5c-0.5-0.3-1-0.8-1.2-1.5l-2.5-5.7 H595l-2.5,5.7c-0.3,0.7-0.7,1.2-1.2,1.5c-0.5,0.3-1.1,0.5-1.8,0.5c-0.9,0-1.8-0.3-2.5-0.9c-0.7-0.6-1.1-1.4-1.1-2.3 c0-0.4,0.1-1,0.4-1.5l13-27.2c0.4-0.8,0.9-1.4,1.6-1.8c0.7-0.4,1.5-0.6,2.3-0.6c0.8,0,1.6,0.2,2.3,0.6s1.2,1,1.6,1.7l13,27.2 C620.2,1429,620.3,1429.5,620.3,1430z M597.5,1419.8h11.2l-5.6-12.5L597.5,1419.8z"></path> </g> </g> <g id="Warstwa_2"> <line class="st5" x1="205.8" y1="1462.3" x2="1464.6" y2="156.5"></line> <g> <g> <line class="st6" x1="1300.9" y1="232.5" x2="240.1" y2="1358.9"></line> <g> <path class="st7" d="M1290.6,223.7c5.1-5.4,13.7-5.7,19.1-0.6c5.4,5.1,5.7,13.7,0.6,19.1c-5.1,5.4-13.7,5.7-19.1,0.6 C1285.7,237.7,1285.5,229.1,1290.6,223.7z"></path> </g> <g> <path class="st7" d="M230.7,1349.1c-5.1,5.4-4.9,14,0.6,19.1c5.4,5.1,14,4.9,19.1-0.6c5.1-5.4,4.9-14-0.6-19.1 C244.4,1343.4,235.9,1343.6,230.7,1349.1z"></path> </g> </g> </g> </g> </svg> 