<?xml version="1.0" encoding="UTF-8"?> <!-- Generator: Adobe Illustrator 22.1.0, SVG Export Plug-In . SVG Version: 6.00 Build 0) --> <svg xmlns="http://www.w3.org/2000/svg" xmlns:xlink="http://www.w3.org/1999/xlink" version="1.1" x="0px" y="0px" viewBox="0 0 1728 1728" style="enable-background:new 0 0 1728 1728;" xml:space="preserve"> <style type="text/css"> .st0{fill:#FF4528;stroke:#FF4528;stroke-width:4;stroke-miterlimit:10;} .st1{fill:#FF4528;stroke:#FF4528;stroke-miterlimit:10;} .st2{fill:#00D59E;} .st3{fill:#FFB200;} .st4{fill:none;stroke:#00D59E;stroke-width:7;stroke-miterlimit:10;} .st5{fill:#343434;} .st6{fill:none;stroke:#343434;stroke-width:8;stroke-miterlimit:10;} .st7{fill:#FF4528;} .st8{fill:none;stroke:#00D59E;stroke-width:12;stroke-miterlimit:10;} </style> <g id="Warstwa_2"> <line class="st0" x1="717" y1="729.7" x2="747" y2="729.7"></line> <g> <path class="st1" d="M816.6,715.7c2.9,1.9,5.2,4.5,6.9,7.9c1.6,3.4,2.5,7.4,2.5,12c0,4.6-0.8,8.6-2.5,12.1c-1.7,3.5-4,6.2-6.9,8.1 c-3,1.9-6.3,2.9-10.1,2.9c-3.2,0-6-0.7-8.5-2.1c-2.5-1.4-4.4-3.3-5.7-5.8v2.3c0,1.6-0.5,2.9-1.5,3.9c-1,1-2.4,1.4-4,1.4 c-1.7,0-3-0.5-4-1.4c-1-1-1.5-2.3-1.5-3.9v-53.8c0-1.6,0.5-2.8,1.6-3.8c1-1,2.4-1.4,4.1-1.4s3,0.4,4.1,1.4c1,0.9,1.5,2.1,1.5,3.7 v21.2c1.3-2.4,3.2-4.2,5.7-5.5c2.5-1.3,5.3-1.9,8.4-1.9C810.3,712.9,813.7,713.8,816.6,715.7z M811.8,746.2c2-2.5,3-6.1,3-10.6 c0-4.5-1-7.9-2.9-10.3c-2-2.4-4.7-3.6-8.3-3.6s-6.4,1.2-8.3,3.6c-2,2.4-2.9,5.9-2.9,10.5c0,4.6,1,8.1,2.9,10.5 c1.9,2.5,4.7,3.7,8.3,3.7C807,750,809.8,748.7,811.8,746.2z"></path> </g> <g> <path class="st2" d="M1060.3,247.4c0.8-0.5,1.7-0.8,2.7-0.8c1.4,0,2.6,0.5,3.7,1.4c1.1,0.9,1.7,2.1,1.7,3.5c0,0.7-0.2,1.4-0.5,2.1 l-24.6,51.5c-1,2-2.6,3.1-4.8,3.1c-1.4,0-2.6-0.4-3.6-1.3c-1.1-0.9-1.6-2-1.6-3.3c0-0.7,0.2-1.4,0.5-2.3l6.1-12.9l-16.7-34.8 c-0.3-0.6-0.4-1.3-0.4-2.1c0-1.4,0.6-2.5,1.8-3.5c1.2-1,2.5-1.4,4-1.4c1,0,1.9,0.3,2.8,0.8c0.8,0.5,1.5,1.3,2,2.4l12.6,27.8 l12.5-27.7C1058.8,248.7,1059.4,247.9,1060.3,247.4z"></path> <path class="st2" d="M1100.2,259.6c-0.8-0.7-1.1-1.7-1.1-2.8c0-1.1,0.4-2.1,1.1-2.8c0.7-0.7,1.7-1.1,2.8-1.1h36 c1.1,0,2.1,0.4,2.8,1.2c0.8,0.8,1.1,1.7,1.1,2.9c0,1.1-0.4,2-1.1,2.7c-0.8,0.8-1.7,1.1-2.8,1.1h-36 C1101.9,260.7,1101,260.3,1100.2,259.6z M1100.2,277.6c-0.8-0.7-1.1-1.7-1.1-2.8c0-1.1,0.4-2.1,1.1-2.8c0.7-0.7,1.7-1.1,2.8-1.1 h36c1.1,0,2.1,0.4,2.8,1.2c0.8,0.8,1.1,1.7,1.1,2.9c0,1.1-0.4,2-1.1,2.7c-0.8,0.8-1.7,1.1-2.8,1.1h-36 C1101.9,278.7,1101,278.3,1100.2,277.6z"></path> <path class="st2" d="M1210.5,250.9c3,3,4.5,7.6,4.5,13.8v22c0,1.6-0.5,2.9-1.4,3.8c-1,0.9-2.3,1.4-4,1.4c-1.6,0-2.8-0.5-3.8-1.4 c-1-1-1.5-2.2-1.5-3.8v-2c-1,2.3-2.6,4.2-4.8,5.5c-2.2,1.3-4.7,2-7.6,2c-2.9,0-5.6-0.6-8-1.8c-2.4-1.2-4.3-2.8-5.7-4.9 c-1.4-2.1-2.1-4.4-2.1-7c0-3.2,0.8-5.8,2.5-7.7c1.6-1.9,4.3-3.2,8.1-4c3.7-0.8,8.8-1.3,15.4-1.3h2.3v-2.1c0-2.9-0.6-5.1-1.9-6.4 s-3.3-2-6.1-2c-1.7,0-3.5,0.3-5.3,0.8c-1.8,0.5-3.9,1.2-6.4,2.2c-1.6,0.8-2.7,1.2-3.4,1.2c-1.1,0-2-0.4-2.7-1.2 c-0.7-0.8-1-1.8-1-3.1c0-1,0.3-1.9,0.8-2.7c0.5-0.7,1.4-1.5,2.6-2.1c2.1-1.1,4.6-2,7.5-2.7c2.9-0.7,5.8-1,8.6-1 C1203,246.4,1207.5,247.9,1210.5,250.9z M1201.4,281.1c1.9-2,2.8-4.6,2.8-7.8v-1.9h-1.6c-4,0-7.1,0.2-9.4,0.5 c-2.2,0.4-3.8,1-4.8,1.9s-1.4,2.1-1.4,3.7c0,1.9,0.7,3.5,2,4.7c1.4,1.2,3,1.8,5,1.8C1197,284.1,1199.5,283.1,1201.4,281.1z"></path> <path class="st2" d="M1266.1,286.9c0,1.3-0.5,2.5-1.5,3.6c-1,1-2.2,1.6-3.6,1.6c-1.5,0-2.8-0.6-3.9-1.9l-12.7-14l-12.7,14 c-1.1,1.2-2.4,1.8-3.9,1.8c-1.3,0-2.5-0.5-3.5-1.5c-1-1-1.5-2.2-1.5-3.5c0-1.4,0.5-2.6,1.6-3.7l13.1-14.3l-12.4-13.5 c-1.1-1.1-1.6-2.3-1.6-3.7c0-1.4,0.5-2.6,1.5-3.6c1-1,2.2-1.5,3.5-1.5c1.4,0,2.7,0.6,3.9,1.8l12,13.1l12-13.1 c1.1-1.2,2.4-1.8,3.9-1.8c1.4,0,2.6,0.5,3.6,1.5c1,1,1.5,2.2,1.5,3.6c0,1.4-0.5,2.6-1.6,3.7l-12.4,13.5l13.2,14.3 C1265.6,284.3,1266.1,285.5,1266.1,286.9z"></path> <path class="st2" d="M1340.6,262.9c0.8,0.8,1.1,1.7,1.1,2.8c0,1.1-0.4,2.1-1.1,2.8c-0.8,0.8-1.7,1.1-2.8,1.1h-14v13.9 c0,1.1-0.4,2.1-1.1,2.9c-0.8,0.8-1.7,1.2-2.8,1.2c-1.1,0-2.1-0.4-2.8-1.2c-0.8-0.8-1.1-1.7-1.1-2.9v-13.9h-14 c-1.1,0-2.1-0.4-2.8-1.1c-0.8-0.7-1.1-1.7-1.1-2.8c0-1.1,0.4-2.1,1.1-2.8c0.7-0.7,1.7-1.1,2.8-1.1h14v-14c0-1.1,0.4-2.1,1.1-2.8 c0.7-0.7,1.7-1.1,2.8-1.1c1.1,0,2.1,0.4,2.8,1.1c0.8,0.8,1.1,1.7,1.1,2.8v14h14C1338.9,261.8,1339.9,262.1,1340.6,262.9z"></path> <path class="st2" d="M1412.5,249.2c2.9,1.9,5.2,4.5,6.9,7.9c1.6,3.4,2.5,7.4,2.5,12c0,4.6-0.8,8.6-2.5,12.1 c-1.7,3.5-4,6.2-6.9,8.1c-3,1.9-6.3,2.9-10.1,2.9c-3.2,0-6-0.7-8.5-2.1c-2.5-1.4-4.4-3.3-5.7-5.8v2.3c0,1.6-0.5,2.9-1.5,3.9 c-1,1-2.4,1.4-4,1.4c-1.7,0-3-0.5-4-1.4c-1-1-1.5-2.3-1.5-3.9v-53.8c0-1.6,0.5-2.8,1.6-3.8c1-1,2.4-1.4,4.1-1.4s3,0.4,4.1,1.4 c1,0.9,1.5,2.1,1.5,3.7v21.2c1.3-2.4,3.2-4.2,5.7-5.5c2.5-1.3,5.3-1.9,8.4-1.9C1406.1,246.4,1409.5,247.3,1412.5,249.2z M1407.6,279.7c2-2.5,3-6.1,3-10.6c0-4.5-1-7.9-2.9-10.3c-2-2.4-4.7-3.6-8.3-3.6s-6.4,1.2-8.3,3.6c-2,2.4-2.9,5.9-2.9,10.5 c0,4.6,1,8.1,2.9,10.5c1.9,2.5,4.7,3.7,8.3,3.7C1402.9,283.5,1405.6,282.2,1407.6,279.7z"></path> </g> <g> <path class="st3" d="M501.4,1302.7c-0.5,5.8-1.2,19.4-1.2,29.8c0,5,1.5,6.7,4.1,6.7l-0.6,7.8c-0.7,0.3-2.4,0.5-3.9,0.5 c-4.5,0-7.7-2.6-8.5-8.5h-0.3c-3,5.3-8.1,8.5-14.5,8.5c-10.3,0-18.1-8.6-18.1-22c0-14.5,9.7-23.8,19.8-23.8 c5.6,0,10.2,2.6,12.6,7.6h0.4c0.3-2.7,0.6-4.8,0.9-6.7H501.4z M479.6,1338.7c4.7,0,8.5-4.5,9.7-9.4c0.3-1.7,0.4-3.1,0.4-5.1 c0-1.6,0-2.9-0.3-4.2c-0.9-5.3-4.5-9.6-9.3-9.6c-6.2,0-10.3,6.5-10.3,14.8C469.8,1332.5,473.5,1338.7,479.6,1338.7z"></path> </g> </g> <g id="Warstwa_3"> <g> <g> <path class="st4" d="M488.5,1234.4c38.5,9.9,105.7,43.8,80.3,158.6"></path> <g> <polygon class="st2" points="490.3,1252.9 463.7,1230.3 496.5,1218.6 "></polygon> </g> </g> </g> </g> <g id="Warstwa_1"> <g> <line class="st5" x1="732" y1="1675" x2="732" y2="47"></line> <g> <line class="st6" x1="732" y1="1675" x2="732" y2="87.2"></line> <g> <polygon class="st5" points="759.9,95.4 732,47 704.1,95.4 "></polygon> </g> </g> </g> <g> <line class="st5" x1="42" y1="1389" x2="1670" y2="1389"></line> <g> <line class="st6" x1="42" y1="1389" x2="1629.8" y2="1389"></line> <g> <polygon class="st5" points="1621.7,1416.9 1670,1389 1621.7,1361.1 "></polygon> </g> </g> </g> <g> <g> <path class="st7" d="M732.8,1399.4c15.3,0,15.3-23.8,0-23.8C717.4,1375.6,717.4,1399.4,732.8,1399.4L732.8,1399.4z"></path> </g> </g> <g> <path class="st7" d="M667.9,1362c-4-5.5-5.9-13.6-5.9-24.3c0-10.6,2-18.6,5.9-24.2s9.7-8.3,17.2-8.3c7.5,0,13.2,2.8,17.2,8.3 s5.9,13.6,5.9,24.2c0,10.6-2,18.6-5.9,24.2c-4,5.6-9.7,8.4-17.2,8.4C677.6,1370.4,671.9,1367.6,667.9,1362z M694,1355.7 c1.9-3.7,2.8-9.7,2.8-17.9c0-8.2-0.9-14.2-2.8-17.9c-1.9-3.7-4.8-5.5-8.9-5.5c-4.1,0-7.1,1.9-8.9,5.6c-1.9,3.7-2.8,9.7-2.8,17.8 c0,8.2,0.9,14.1,2.8,17.9c1.9,3.8,4.8,5.6,8.9,5.6C689.2,1361.3,692.2,1359.4,694,1355.7z"></path> </g> <line class="st8" x1="1021.5" y1="198.9" x2="270.5" y2="1581.1"></line> <g> <path class="st7" d="M833.2,71.7c0.8-0.5,1.7-0.8,2.7-0.8c1.4,0,2.6,0.5,3.7,1.4c1.1,0.9,1.7,2.1,1.7,3.5c0,0.7-0.2,1.4-0.5,2.1 l-24.6,51.5c-1,2-2.6,3.1-4.8,3.1c-1.4,0-2.6-0.4-3.6-1.3c-1.1-0.9-1.6-2-1.6-3.3c0-0.7,0.2-1.4,0.5-2.3l6.1-12.9L796,77.8 c-0.3-0.6-0.5-1.3-0.5-2.1c0-1.4,0.6-2.5,1.8-3.5c1.2-1,2.5-1.4,4-1.4c1,0,1.9,0.3,2.8,0.8c0.8,0.5,1.5,1.3,2,2.4l12.6,27.8 L831.2,74C831.7,73,832.3,72.2,833.2,71.7z"></path> </g> <g> <path class="st7" d="M1623.8,1333.5c0,1.3-0.5,2.5-1.5,3.6c-1,1-2.2,1.6-3.6,1.6c-1.5,0-2.8-0.6-3.9-1.9l-12.7-14l-12.7,14 c-1.1,1.2-2.4,1.8-3.9,1.8c-1.3,0-2.5-0.5-3.5-1.5c-1-1-1.5-2.2-1.5-3.5c0-1.4,0.5-2.6,1.6-3.7l13.1-14.3l-12.4-13.5 c-1.1-1.1-1.6-2.3-1.6-3.7c0-1.4,0.5-2.6,1.5-3.6c1-1,2.2-1.5,3.5-1.5c1.4,0,2.7,0.6,3.9,1.8l12,13.1l12-13.1 c1.1-1.2,2.4-1.8,3.9-1.8c1.4,0,2.6,0.5,3.6,1.5s1.5,2.2,1.5,3.6c0,1.4-0.5,2.6-1.6,3.7l-12.4,13.5l13.2,14.3 C1623.2,1330.9,1623.8,1332.1,1623.8,1333.5z"></path> </g> </g> </svg> 