<?xml version="1.0" encoding="UTF-8"?> <!-- Generator: Adobe Illustrator 22.1.0, SVG Export Plug-In . SVG Version: 6.00 Build 0) --> <svg xmlns="http://www.w3.org/2000/svg" xmlns:xlink="http://www.w3.org/1999/xlink" version="1.1" x="0px" y="0px" viewBox="0 0 1375.4 849.7" style="enable-background:new 0 0 1375.4 849.7;" xml:space="preserve"> <style type="text/css"> .st0{fill:#E2FBF5;stroke:#00D59E;stroke-width:4;stroke-miterlimit:10;} .st1{fill:#00D59E;} .st2{fill:#FF4528;} .st3{fill:#FF4528;stroke:#FF4528;stroke-width:4;stroke-miterlimit:10;} .st4{fill:#D9EFFF;stroke:#0093FF;stroke-width:6;stroke-miterlimit:10;} .st5{fill:#FFF7E3;stroke:#FFB200;stroke-width:8;stroke-miterlimit:10;} .st6{opacity:0.8;fill:#E1E8FF;stroke:#6973CA;stroke-width:6;stroke-miterlimit:10;} .st7{fill:#FFB200;} .st8{fill:#0093FF;} .st9{fill:#6973CA;} .st10{fill:none;stroke:#FF4528;stroke-width:12;stroke-linecap:round;stroke-linejoin:round;stroke-miterlimit:10;} </style> <g id="Warstwa_6"> <path class="st0" d="M1018,652.3v107.3H888.7C888.7,759.6,904.4,664.2,1018,652.3z"></path> <g> <g> <path class="st1" d="M976,722.3c7.7,0,7.7-11.9,0-11.9C968.3,710.4,968.3,722.3,976,722.3L976,722.3z"></path> </g> </g> <g> <path class="st1" d="M959.9,463.6V487c0,1.3-0.4,2.4-1.3,3.1c-0.8,0.8-2,1.2-3.3,1.2c-1.4,0-2.5-0.4-3.3-1.2 c-0.8-0.8-1.2-1.8-1.2-3.1v-23.3c0-3.6-0.7-6.2-2.2-7.9c-1.5-1.7-3.8-2.5-6.9-2.5c-3.7,0-6.6,1.1-8.8,3.4 c-2.2,2.3-3.3,5.3-3.3,9.2V487c0,1.3-0.4,2.4-1.2,3.1c-0.8,0.8-1.9,1.2-3.3,1.2c-1.4,0-2.5-0.4-3.3-1.2c-0.8-0.8-1.3-1.8-1.3-3.1 v-55.7c0-1.3,0.4-2.4,1.3-3.1c0.9-0.8,2-1.2,3.4-1.2c1.3,0,2.4,0.4,3.2,1.1c0.8,0.8,1.2,1.8,1.2,3v22.5c1.5-2.5,3.5-4.4,6-5.8 c2.5-1.3,5.4-2,8.6-2C954.7,445.8,959.9,451.8,959.9,463.6z"></path> </g> <g> <path class="st1" d="M969.9,498.3c-1.6-0.9-2.9-2.3-3.7-4c-0.9-1.7-1.3-3.7-1.3-5.9c0-2.3,0.5-4.3,1.4-6c0.9-1.7,2.2-3.1,3.8-4.1 c1.6-1,3.5-1.4,5.7-1.4c1.1,0,2.3,0.2,3.4,0.5c1.2,0.3,2.2,0.8,3.1,1.4c1,0.7,1.4,1.4,1.4,2.3c0,0.5-0.1,0.9-0.4,1.3 c-0.3,0.3-0.6,0.5-1,0.5c-0.3,0-0.5-0.1-0.8-0.2c-0.3-0.1-0.6-0.3-1-0.6c-0.8-0.5-1.4-0.8-2.1-1.1c-0.6-0.3-1.4-0.4-2.3-0.4 c-2,0-3.6,0.7-4.7,2.1c-1.1,1.4-1.7,3.3-1.7,5.8c0,2.5,0.6,4.4,1.7,5.7c1.1,1.3,2.7,2,4.7,2c0.9,0,1.7-0.1,2.4-0.4 s1.4-0.6,2.1-1.1c0.3-0.2,0.7-0.4,1-0.5c0.3-0.1,0.6-0.2,0.9-0.2c0.4,0,0.8,0.2,1,0.5c0.3,0.3,0.4,0.8,0.4,1.3 c0,0.4-0.1,0.8-0.3,1.1c-0.2,0.3-0.6,0.7-1.1,1.1c-0.9,0.6-2,1.1-3.1,1.4c-1.2,0.3-2.4,0.5-3.6,0.5 C973.3,499.7,971.5,499.3,969.9,498.3z"></path> </g> <g> <path class="st2" d="M995.4,848.3c-1-1-1.5-2.3-1.5-4v-52.5c0-1.7,0.5-3.1,1.5-4c1-1,2.4-1.4,4.1-1.4h17.8 c10.4,0,18.4,2.8,24.2,8.3c5.7,5.6,8.6,13.3,8.6,23.4c0,10.1-2.9,17.9-8.6,23.4c-5.7,5.6-13.8,8.3-24.2,8.3h-17.8 C997.8,849.7,996.4,849.2,995.4,848.3z M1038.5,817.9c0-14.8-7.3-22.2-21.9-22.2h-11.1v44.5h11.1 C1031.2,840.3,1038.5,832.8,1038.5,817.9z"></path> </g> </g> <g id="Warstwa_3"> <g> <path class="st2" d="M62.9,800.7c0,1.4-0.6,2.6-1.7,3.5c-1.1,1-2.4,1.4-3.8,1.4c-1,0-1.9-0.3-2.7-0.8c-0.8-0.5-1.5-1.3-2-2.4 l-5.4-12.1H15.7l-5.4,12.1c-0.5,1.1-1.1,1.9-2,2.4c-0.8,0.5-1.8,0.8-2.8,0.8c-1.4,0-2.6-0.5-3.8-1.4c-1.1-1-1.7-2.1-1.7-3.5 c0-0.8,0.2-1.6,0.5-2.3L25.4,745c0.5-1.2,1.4-2.1,2.5-2.7c1.1-0.6,2.3-0.9,3.6-0.9c1.3,0,2.4,0.3,3.6,0.9c1.1,0.6,1.9,1.5,2.5,2.7 l24.9,53.4C62.7,799.1,62.9,799.9,62.9,800.7z M19.6,781.4h23.8l-11.9-26.7L19.6,781.4z"></path> </g> <g> <path class="st2" d="M1006.1,61.1c-4.6-2.6-8.1-6.4-10.6-11.3c-2.5-4.9-3.7-10.7-3.7-17.3c0-6.6,1.2-12.3,3.7-17.2 c2.5-4.9,6-8.7,10.6-11.3c4.6-2.6,9.9-4,16.1-4c4,0,7.7,0.6,11.2,1.8c3.5,1.2,6.6,2.9,9.3,5.1c0.8,0.6,1.3,1.2,1.6,1.9 c0.3,0.7,0.4,1.5,0.4,2.4c0,1.3-0.4,2.4-1.1,3.3c-0.7,0.9-1.6,1.4-2.6,1.4c-1.2,0-2.4-0.4-3.7-1.3c-2.6-1.9-5-3.3-7.2-4 c-2.2-0.7-4.7-1.1-7.4-1.1c-6.2,0-11,2-14.2,5.9c-3.2,3.9-4.8,9.6-4.8,17.2c0,7.6,1.6,13.4,4.8,17.3c3.2,3.9,7.9,5.9,14.2,5.9 c2.6,0,5-0.4,7.2-1.2c2.2-0.8,4.7-2.1,7.4-4c0.6-0.4,1.2-0.7,1.8-0.9c0.6-0.2,1.2-0.4,1.9-0.4c1,0,1.9,0.4,2.6,1.3 c0.7,0.9,1.1,2,1.1,3.3c0,0.9-0.2,1.7-0.4,2.4c-0.3,0.7-0.8,1.3-1.6,1.9c-2.7,2.2-5.8,3.9-9.3,5.1c-3.5,1.2-7.2,1.8-11.2,1.8 C1016.1,65.1,1010.7,63.8,1006.1,61.1z"></path> </g> <g> <path class="st2" d="M1372.4,777.1c2,2.7,3,6,3,9.9c0,5.4-1.9,9.6-5.8,12.7c-3.9,3.1-9.2,4.6-16,4.6h-23.2c-1.7,0-3.1-0.5-4.1-1.4 c-1-1-1.5-2.3-1.5-4.1v-52.5c0-1.7,0.5-3.1,1.5-4c1-1,2.4-1.4,4.1-1.4h22.3c6.6,0,11.8,1.5,15.5,4.4c3.7,2.9,5.6,7,5.6,12.2 c0,3.4-0.9,6.3-2.7,8.7c-1.8,2.5-4.2,4.3-7.3,5.4C1367.6,772.5,1370.4,774.4,1372.4,777.1z M1336.2,767.5h14.7c8,0,12-3,12-8.9 c0-3-1-5.2-3-6.7s-5-2.2-9-2.2h-14.7V767.5z M1361.6,793c1.9-1.5,2.9-3.8,2.9-7c0-3.2-1-5.5-2.9-7.1c-2-1.6-5-2.3-9.1-2.3h-16.2 v18.7h16.2C1356.6,795.3,1359.7,794.5,1361.6,793z"></path> </g> <g> <path class="st1" d="M536.1,344.7c2.9,1.9,5.2,4.5,6.9,7.9c1.6,3.4,2.5,7.4,2.5,12c0,4.6-0.8,8.6-2.5,12.1c-1.7,3.5-4,6.2-6.9,8.1 c-3,1.9-6.3,2.9-10.1,2.9c-3.2,0-6-0.7-8.5-2.1c-2.5-1.4-4.4-3.3-5.7-5.8v2.3c0,1.6-0.5,2.9-1.5,3.9c-1,1-2.4,1.4-4.1,1.4 c-1.7,0-3-0.5-4-1.4c-1-1-1.5-2.3-1.5-3.9v-53.8c0-1.6,0.5-2.8,1.6-3.8c1-1,2.4-1.4,4.1-1.4c1.7,0,3,0.4,4,1.4 c1,0.9,1.5,2.1,1.5,3.7v21.2c1.3-2.4,3.2-4.2,5.7-5.5c2.5-1.3,5.2-1.9,8.4-1.9C529.7,341.9,533.1,342.9,536.1,344.7z M531.2,375.2 c2-2.5,3-6.1,3-10.6c0-4.5-1-7.9-2.9-10.3c-2-2.4-4.7-3.6-8.3-3.6s-6.4,1.2-8.3,3.6c-2,2.4-2.9,5.9-2.9,10.5c0,4.6,1,8.1,2.9,10.5 c1.9,2.5,4.7,3.7,8.3,3.7C526.5,379,529.2,377.8,531.2,375.2z"></path> </g> <g> <path class="st1" d="M591.7,828.8c-3.3-1.9-5.9-4.5-7.7-7.9s-2.7-7.4-2.7-12c0-4.6,0.9-8.6,2.8-12.1c1.9-3.5,4.5-6.2,8-8.1 c3.4-1.9,7.3-2.9,11.8-2.9c2.3,0,4.7,0.3,7.1,1c2.4,0.7,4.5,1.6,6.3,2.7c1.9,1.3,2.9,2.9,2.9,4.8c0,1.3-0.3,2.4-0.9,3.2 c-0.6,0.8-1.5,1.2-2.5,1.2c-0.7,0-1.3-0.1-2.1-0.5c-0.7-0.3-1.4-0.7-2.2-1.1c-1.3-0.8-2.6-1.4-3.8-1.8c-1.2-0.5-2.6-0.7-4.1-0.7 c-3.7,0-6.6,1.2-8.6,3.6c-2,2.4-3,5.9-3,10.5c0,4.5,1,8,3,10.4c2,2.4,4.9,3.6,8.6,3.6c1.5,0,2.8-0.2,4-0.7 c1.2-0.4,2.5-1.1,3.9-1.8c0.9-0.5,1.7-0.9,2.3-1.2c0.7-0.3,1.3-0.4,2-0.4c1,0,1.8,0.4,2.4,1.3c0.7,0.8,1,1.9,1,3.2 c0,1-0.2,1.9-0.7,2.7c-0.5,0.8-1.2,1.4-2.2,2c-1.9,1.2-4,2.1-6.5,2.8c-2.5,0.7-5,1-7.6,1C598.8,831.6,595,830.6,591.7,828.8z"></path> </g> <g> <path class="st1" d="M1213.6,359.8c3,3,4.5,7.6,4.5,13.8v22c0,1.6-0.5,2.9-1.4,3.8c-1,0.9-2.3,1.4-4,1.4c-1.6,0-2.8-0.5-3.8-1.4 c-1-1-1.5-2.2-1.5-3.8v-2c-1,2.3-2.6,4.2-4.8,5.5c-2.2,1.3-4.7,2-7.6,2c-2.9,0-5.6-0.6-8-1.8c-2.4-1.2-4.3-2.8-5.7-4.9 c-1.4-2.1-2.1-4.4-2.1-7c0-3.2,0.8-5.8,2.5-7.7c1.6-1.9,4.3-3.2,8.1-4c3.7-0.8,8.8-1.3,15.4-1.3h2.3v-2.1c0-2.9-0.6-5.1-1.9-6.4 c-1.3-1.4-3.3-2-6.1-2c-1.7,0-3.5,0.3-5.3,0.8c-1.8,0.5-3.9,1.2-6.4,2.2c-1.6,0.8-2.7,1.2-3.4,1.2c-1.1,0-2-0.4-2.7-1.2 c-0.7-0.8-1-1.8-1-3.1c0-1,0.3-1.9,0.8-2.7c0.5-0.7,1.4-1.5,2.6-2.1c2.1-1.1,4.6-2,7.5-2.7c2.9-0.7,5.8-1,8.6-1 C1206,355.3,1210.6,356.8,1213.6,359.8z M1204.5,390c1.9-2,2.8-4.6,2.8-7.8v-1.9h-1.6c-4,0-7.1,0.2-9.4,0.5 c-2.2,0.4-3.8,1-4.8,1.9c-1,0.9-1.4,2.1-1.4,3.7c0,1.9,0.7,3.5,2,4.7c1.4,1.2,3,1.8,5,1.8C1200.1,393,1202.6,392,1204.5,390z"></path> </g> <line class="st3" x1="1018" y1="762.3" x2="1018" y2="90.3"></line> </g> <g id="Warstwa_4"> <path class="st4" d="M350.7,763.9L74,763.3l235-167C309,596.3,370,679.3,350.7,763.9"></path> <path class="st5" d="M1223.4,573.6l81.7,189.7l-229,1C1076,764.3,1083.4,627.6,1223.4,573.6"></path> <path class="st6" d="M853.4,205.6L1018,90.3l70,165.3C1088,255.6,917.4,297.6,853.4,205.6z"></path> <g> <path class="st7" d="M1171.5,711.6v5.6c0,5.2,0.2,12.2,1.1,15.9h-10.3c-1.2-2.7-1.5-9.2-1.5-15.4v-40.4c0-12.8,3.2-18.4,6.9-21.9 c3.2-3,7.6-5,13.9-5c10.3,0,16.9,6.9,16.9,16c0,5.9-3.1,11.5-7.6,13.8v0.5c6.6,1.4,12.6,7.5,12.6,16.8c0,11.7-8.7,18.8-18.9,18.8 c-5.4,0-9.6-1.5-13-4.7H1171.5z M1171.5,702.1c2.1,3,5.7,5.8,10.5,5.8c6.5,0,10.3-4.9,10.3-10.7c0-7.4-5.1-11.2-11.7-11.6 c-0.7,0-1.4,0-2.2,0v-7c0.5,0,1-0.1,1.5-0.2c5.5-0.6,8.4-5.1,8.4-10.2c0-5.5-3.1-9.2-7.6-9.2c-5.8,0-9.3,4.9-9.3,16.5V702.1z"></path> </g> <g> <path class="st8" d="M267.1,686.4c-0.5,5.8-1.2,19.4-1.2,29.8c0,5,1.5,6.8,4.1,6.7l-0.6,7.8c-0.7,0.3-2.4,0.5-3.9,0.5 c-4.5,0-7.7-2.6-8.5-8.5h-0.3c-3,5.3-8.1,8.5-14.5,8.5c-10.3,0-18.1-8.6-18.1-22c0-14.5,9.7-23.8,19.8-23.8 c5.6,0,10.2,2.6,12.6,7.6h0.4c0.3-2.7,0.6-4.8,0.9-6.7H267.1z M245.2,722.4c4.7,0,8.5-4.5,9.7-9.4c0.3-1.7,0.4-3.1,0.4-5.1 c0-1.6,0-2.9-0.3-4.2c-0.9-5.3-4.5-9.6-9.3-9.6c-6.2,0-10.3,6.5-10.3,14.8C235.4,716.2,239.2,722.4,245.2,722.4z"></path> </g> <g> <path class="st9" d="M983.9,235.1c0.3-8.5,0.4-16.7-1.4-25.3c-3.1-14.6-10.6-29-15.3-36.4h12.3c3.6,5.4,9.3,19,11.8,31.8h0.4 c3.4-6.9,8.2-18.4,8.2-28.3c0-1.7,0-2.6-0.1-3.5h10.5c0.2,0.8,0.2,2.1,0.2,3.2c0,11.2-6.7,25.6-15.5,38.6 c-0.5,0.7-0.5,1.4-0.5,2.2c0.2,4.4,0.2,11.6,0.3,17.6H983.9z"></path> </g> </g> <g id="Warstwa_2"> <polygon class="st10" points="74,763.3 1018,90.3 1305,763.3 "></polygon> </g> </svg> 