<?xml version="1.0" encoding="UTF-8"?> <!-- Generator: Adobe Illustrator 22.1.0, SVG Export Plug-In . SVG Version: 6.00 Build 0) --> <svg xmlns="http://www.w3.org/2000/svg" xmlns:xlink="http://www.w3.org/1999/xlink" version="1.1" x="0px" y="0px" viewBox="0 0 1132.8 1079.5" style="enable-background:new 0 0 1132.8 1079.5;" xml:space="preserve"> <style type="text/css"> .st0{fill:#0093FF;stroke:#0093FF;stroke-width:6;stroke-miterlimit:10;} .st1{fill:#D9EFFF;stroke:#0093FF;stroke-width:6;stroke-miterlimit:10;} .st2{fill:#0093FF;} .st3{fill:none;stroke:#FF4528;stroke-width:12;stroke-linecap:round;stroke-linejoin:round;stroke-miterlimit:10;} .st4{fill:#FF4528;} </style> <g id="Warstwa_3"> <line class="st0" x1="566.9" y1="80.7" x2="566.9" y2="1003.2"></line> </g> <g id="Warstwa_4"> <path class="st1" d="M566.3,909.6v91h-106C460.3,1000.6,464.4,909.6,566.3,909.6z"></path> <g> <g> <path class="st2" d="M526.3,966.5c7.7,0,7.7-11.9,0-11.9C518.7,954.6,518.7,966.5,526.3,966.5L526.3,966.5z"></path> </g> </g> </g> <g id="Warstwa_2"> <polygon class="st3" points="79.5,1001.7 566.9,80.7 1064.9,1006.2 "></polygon> <g> <path class="st4" d="M62.9,1018.6c0,1.4-0.6,2.6-1.7,3.5c-1.1,1-2.4,1.4-3.8,1.4c-1,0-1.9-0.3-2.7-0.8c-0.8-0.5-1.5-1.3-2-2.4 l-5.4-12.1H15.7l-5.4,12.1c-0.5,1.1-1.1,1.9-2,2.4c-0.8,0.5-1.8,0.8-2.8,0.8c-1.4,0-2.6-0.5-3.8-1.4c-1.1-1-1.7-2.1-1.7-3.5 c0-0.8,0.2-1.6,0.5-2.3l24.8-53.4c0.5-1.2,1.4-2.1,2.5-2.7c1.1-0.6,2.3-0.9,3.6-0.9c1.3,0,2.4,0.3,3.6,0.9 c1.1,0.6,1.9,1.5,2.5,2.7l24.9,53.4C62.7,1017.1,62.9,1017.8,62.9,1018.6z M19.6,999.4h23.8l-11.9-26.7L19.6,999.4z"></path> </g> <g> <path class="st4" d="M1129.8,996.4c2,2.7,3,6,3,9.9c0,5.4-1.9,9.6-5.8,12.7c-3.9,3.1-9.2,4.6-16,4.6h-23.2c-1.7,0-3.1-0.5-4.1-1.4 c-1-1-1.5-2.3-1.5-4v-52.5c0-1.7,0.5-3.1,1.5-4c1-1,2.4-1.4,4.1-1.4h22.3c6.6,0,11.8,1.5,15.5,4.4c3.7,2.9,5.6,7,5.6,12.2 c0,3.4-0.9,6.3-2.7,8.7c-1.8,2.5-4.2,4.3-7.3,5.4C1124.9,991.9,1127.7,993.7,1129.8,996.4z M1093.5,986.9h14.7c8,0,12-3,12-8.9 c0-3-1-5.2-3-6.7s-5-2.2-9-2.2h-14.7V986.9z M1118.9,1012.3c1.9-1.5,2.9-3.8,2.9-7c0-3.2-1-5.5-2.9-7.1c-2-1.6-5-2.3-9.1-2.3 h-16.2v18.7h16.2C1113.9,1014.6,1117,1013.8,1118.9,1012.3z"></path> </g> <g> <path class="st4" d="M552.1,61.1c-4.6-2.6-8.1-6.4-10.6-11.3c-2.5-4.9-3.7-10.7-3.7-17.3c0-6.6,1.2-12.3,3.7-17.2 c2.5-4.9,6-8.7,10.6-11.3c4.6-2.6,9.9-4,16.1-4c4,0,7.7,0.6,11.2,1.8c3.5,1.2,6.6,2.9,9.3,5.1c0.8,0.6,1.3,1.2,1.6,1.9 c0.3,0.7,0.4,1.5,0.4,2.4c0,1.3-0.4,2.4-1.1,3.3c-0.7,0.9-1.6,1.4-2.6,1.4c-1.2,0-2.4-0.4-3.7-1.3c-2.6-1.9-5-3.3-7.2-4 c-2.2-0.7-4.7-1.1-7.4-1.1c-6.2,0-11,2-14.2,5.9c-3.2,3.9-4.8,9.6-4.8,17.2c0,7.6,1.6,13.4,4.8,17.3c3.2,3.9,7.9,5.9,14.2,5.9 c2.6,0,5-0.4,7.2-1.2c2.2-0.8,4.7-2.1,7.4-4c0.6-0.4,1.2-0.7,1.8-0.9c0.6-0.2,1.2-0.4,1.9-0.4c1,0,1.9,0.4,2.6,1.3 c0.7,0.9,1.1,2,1.1,3.3c0,0.9-0.2,1.7-0.4,2.4c-0.3,0.7-0.8,1.3-1.6,1.9c-2.7,2.2-5.8,3.9-9.3,5.1c-3.5,1.2-7.2,1.8-11.2,1.8 C562.1,65.1,556.7,63.8,552.1,61.1z"></path> </g> <g> <path class="st2" d="M275.9,519.3c3,3,4.5,7.6,4.5,13.8v22c0,1.6-0.5,2.9-1.4,3.8c-1,0.9-2.3,1.4-4,1.4c-1.6,0-2.8-0.5-3.8-1.4 c-1-1-1.5-2.2-1.5-3.8v-2c-1,2.3-2.6,4.2-4.8,5.5c-2.2,1.3-4.7,2-7.6,2c-2.9,0-5.6-0.6-8-1.8c-2.4-1.2-4.3-2.8-5.7-4.9 c-1.4-2.1-2.1-4.4-2.1-7c0-3.2,0.8-5.8,2.5-7.7c1.6-1.9,4.3-3.2,8.1-4c3.7-0.8,8.8-1.3,15.4-1.3h2.3v-2.1c0-2.9-0.6-5.1-1.9-6.4 c-1.3-1.4-3.3-2-6.1-2c-1.7,0-3.5,0.3-5.3,0.8c-1.8,0.5-3.9,1.2-6.4,2.2c-1.6,0.8-2.7,1.2-3.4,1.2c-1.1,0-2-0.4-2.7-1.2 c-0.7-0.8-1-1.8-1-3.1c0-1,0.3-1.9,0.8-2.7c0.5-0.7,1.4-1.5,2.6-2.1c2.1-1.1,4.6-2,7.5-2.7c2.9-0.7,5.8-1,8.6-1 C268.4,514.7,272.9,516.2,275.9,519.3z M266.8,549.4c1.9-2,2.8-4.6,2.8-7.8v-1.9H268c-4,0-7.1,0.2-9.4,0.5c-2.2,0.4-3.8,1-4.8,1.9 c-1,0.9-1.4,2.1-1.4,3.7c0,1.9,0.7,3.5,2,4.7c1.4,1.2,3,1.8,5,1.8C262.5,552.4,264.9,551.4,266.8,549.4z"></path> </g> <g> <path class="st2" d="M565.9,1038.3c3,3,4.5,7.6,4.5,13.8v22c0,1.6-0.5,2.9-1.4,3.8c-1,0.9-2.3,1.4-4,1.4c-1.6,0-2.8-0.5-3.8-1.4 c-1-1-1.5-2.2-1.5-3.8v-2c-1,2.3-2.6,4.2-4.8,5.5c-2.2,1.3-4.7,2-7.6,2c-2.9,0-5.6-0.6-8-1.8c-2.4-1.2-4.3-2.8-5.7-4.9 c-1.4-2.1-2.1-4.4-2.1-7c0-3.2,0.8-5.8,2.5-7.7c1.6-1.9,4.3-3.2,8.1-4c3.7-0.8,8.8-1.3,15.4-1.3h2.3v-2.1c0-2.9-0.6-5.1-1.9-6.4 c-1.3-1.4-3.3-2-6.1-2c-1.7,0-3.5,0.3-5.3,0.8c-1.8,0.5-3.9,1.2-6.4,2.2c-1.6,0.8-2.7,1.2-3.4,1.2c-1.1,0-2-0.4-2.7-1.2 c-0.7-0.8-1-1.8-1-3.1c0-1,0.3-1.9,0.8-2.7c0.5-0.7,1.4-1.5,2.6-2.1c2.1-1.1,4.6-2,7.5-2.7c2.9-0.7,5.8-1,8.6-1 C558.4,1033.7,562.9,1035.2,565.9,1038.3z M556.8,1068.4c1.9-2,2.8-4.6,2.8-7.8v-1.9H558c-4,0-7.1,0.2-9.4,0.5 c-2.2,0.4-3.8,1-4.8,1.9c-1,0.9-1.4,2.1-1.4,3.7c0,1.9,0.7,3.5,2,4.7c1.4,1.2,3,1.8,5,1.8C552.5,1071.4,554.9,1070.4,556.8,1068.4 z"></path> </g> <g> <path class="st2" d="M885.9,519.3c3,3,4.5,7.6,4.5,13.8v22c0,1.6-0.5,2.9-1.4,3.8c-1,0.9-2.3,1.4-4,1.4c-1.6,0-2.8-0.5-3.8-1.4 c-1-1-1.5-2.2-1.5-3.8v-2c-1,2.3-2.6,4.2-4.8,5.5c-2.2,1.3-4.7,2-7.6,2c-2.9,0-5.6-0.6-8-1.8c-2.4-1.2-4.3-2.8-5.7-4.9 c-1.4-2.1-2.1-4.4-2.1-7c0-3.2,0.8-5.8,2.5-7.7c1.6-1.9,4.3-3.2,8.1-4c3.7-0.8,8.8-1.3,15.4-1.3h2.3v-2.1c0-2.9-0.6-5.1-1.9-6.4 c-1.3-1.4-3.3-2-6.1-2c-1.7,0-3.5,0.3-5.3,0.8c-1.8,0.5-3.9,1.2-6.4,2.2c-1.6,0.8-2.7,1.2-3.4,1.2c-1.1,0-2-0.4-2.7-1.2 c-0.7-0.8-1-1.8-1-3.1c0-1,0.3-1.9,0.8-2.7c0.5-0.7,1.4-1.5,2.6-2.1c2.1-1.1,4.6-2,7.5-2.7c2.9-0.7,5.8-1,8.6-1 C878.4,514.7,882.9,516.2,885.9,519.3z M876.8,549.4c1.9-2,2.8-4.6,2.8-7.8v-1.9H878c-4,0-7.1,0.2-9.4,0.5c-2.2,0.4-3.8,1-4.8,1.9 c-1,0.9-1.4,2.1-1.4,3.7c0,1.9,0.7,3.5,2,4.7c1.4,1.2,3,1.8,5,1.8C872.5,552.4,874.9,551.4,876.8,549.4z"></path> </g> </g> </svg> 