<?xml version="1.0" encoding="utf-8"?>
<!-- Generator: Adobe Illustrator 22.1.0, SVG Export Plug-In . SVG Version: 6.00 Build 0)  -->
<svg version="1.1" xmlns="http://www.w3.org/2000/svg" xmlns:xlink="http://www.w3.org/1999/xlink" x="0px" y="0px"
	 viewBox="0 0 1206.8 1455.2" style="enable-background:new 0 0 1206.8 1455.2;" xml:space="preserve">
<style type="text/css">
	.st0{fill:none;stroke:#FF4528;stroke-width:8;stroke-linecap:round;stroke-linejoin:round;stroke-miterlimit:10;}
	.st1{fill:none;stroke:#FF4528;stroke-width:6;stroke-linecap:round;stroke-linejoin:round;stroke-miterlimit:10;}
	.st2{fill:#0093FF;}
	.st3{fill:#00D59E;}
</style>
<g id="Warstwa_3">
	<polygon class="st0" points="91.2,402 92.2,1422 870.7,1415.5 1120.2,1049.5 1124.7,32.5 347.7,34.5 	"/>
</g>
<g id="Warstwa_4">
	<polyline class="st0" points="91.2,402 867.7,401 1124.7,32.5 	"/>
</g>
<g id="Warstwa_5">
	<line class="st0" x1="867.7" y1="401" x2="870.7" y2="1415.5"/>
</g>
<g id="Warstwa_6">
	<polyline class="st1" points="92.2,1422 356.2,1052.5 1120.2,1049.5 	"/>
</g>
<g id="Warstwa_7">
	<line class="st1" x1="347.7" y1="34.5" x2="356.2" y2="1052.5"/>
	<g>
		<path class="st2" d="M62.9,1442.8c0,1.4-0.6,2.6-1.7,3.5c-1.1,1-2.4,1.4-3.8,1.4c-1,0-1.9-0.3-2.7-0.8c-0.8-0.5-1.5-1.3-2-2.4
			l-5.4-12.1H15.7l-5.4,12.1c-0.5,1.1-1.1,1.9-2,2.4c-0.8,0.5-1.8,0.8-2.8,0.8c-1.4,0-2.6-0.5-3.8-1.4c-1.1-1-1.7-2.1-1.7-3.5
			c0-0.8,0.2-1.6,0.5-2.3l24.8-53.4c0.5-1.2,1.4-2.1,2.5-2.7c1.1-0.6,2.3-0.9,3.6-0.9c1.3,0,2.4,0.3,3.6,0.9
			c1.1,0.6,1.9,1.5,2.5,2.7l24.9,53.4C62.7,1441.2,62.9,1442,62.9,1442.8z M19.6,1423.5h23.8l-11.9-26.7L19.6,1423.5z"/>
	</g>
	<g>
		<path class="st2" d="M953.7,1428c2,2.7,3,6,3,9.9c0,5.4-1.9,9.6-5.8,12.7c-3.9,3.1-9.2,4.6-16,4.6h-23.2c-1.7,0-3.1-0.5-4.1-1.4
			c-1-1-1.5-2.3-1.5-4v-52.5c0-1.7,0.5-3.1,1.5-4c1-1,2.4-1.4,4.1-1.4h22.3c6.6,0,11.8,1.5,15.5,4.4c3.7,2.9,5.6,7,5.6,12.2
			c0,3.4-0.9,6.3-2.7,8.7c-1.8,2.5-4.2,4.3-7.3,5.4C948.9,1423.5,951.7,1425.3,953.7,1428z M917.5,1418.5h14.7c8,0,12-3,12-8.9
			c0-3-1-5.2-3-6.7c-2-1.4-5-2.2-9-2.2h-14.7V1418.5z M942.9,1444c1.9-1.5,2.9-3.8,2.9-7c0-3.2-1-5.5-2.9-7.1c-2-1.6-5-2.3-9.1-2.3
			h-16.2v18.7h16.2C937.9,1446.2,941,1445.5,942.9,1444z"/>
	</g>
	<g>
		<path class="st2" d="M1167.2,1078.1c-4.6-2.6-8.1-6.4-10.6-11.3c-2.5-4.9-3.7-10.7-3.7-17.3c0-6.6,1.2-12.3,3.7-17.2
			c2.5-4.9,6-8.7,10.6-11.3c4.6-2.6,9.9-4,16.1-4c4,0,7.7,0.6,11.2,1.8c3.5,1.2,6.6,2.9,9.3,5.1c0.8,0.6,1.3,1.2,1.6,1.9
			c0.3,0.7,0.5,1.5,0.5,2.4c0,1.3-0.4,2.4-1.1,3.3c-0.7,0.9-1.6,1.3-2.6,1.3c-1.2,0-2.4-0.4-3.7-1.3c-2.6-1.9-5-3.3-7.2-4
			c-2.2-0.8-4.7-1.1-7.4-1.1c-6.2,0-11,2-14.2,5.8c-3.2,3.9-4.8,9.6-4.8,17.2c0,7.6,1.6,13.4,4.8,17.3c3.2,3.9,7.9,5.9,14.2,5.9
			c2.6,0,5-0.4,7.2-1.2c2.2-0.8,4.7-2.1,7.4-4c0.6-0.4,1.2-0.7,1.8-0.9c0.6-0.2,1.2-0.4,1.9-0.4c1,0,1.9,0.5,2.6,1.4
			c0.7,0.9,1.1,2,1.1,3.3c0,0.9-0.2,1.7-0.5,2.4c-0.3,0.7-0.8,1.3-1.6,1.9c-2.7,2.2-5.8,3.9-9.3,5.1c-3.5,1.2-7.2,1.8-11.2,1.8
			C1177.1,1082.1,1171.8,1080.8,1167.2,1078.1z"/>
	</g>
	<g>
		<path class="st2" d="M264.9,1082.8c-1-1-1.5-2.3-1.5-4v-52.5c0-1.7,0.5-3.1,1.5-4c1-1,2.4-1.4,4.1-1.4h17.8
			c10.4,0,18.4,2.8,24.2,8.3c5.7,5.6,8.6,13.3,8.6,23.4c0,10.1-2.9,17.9-8.6,23.4c-5.7,5.6-13.8,8.3-24.2,8.3H269
			C267.3,1084.3,265.9,1083.8,264.9,1082.8z M308,1052.5c0-14.8-7.3-22.2-21.9-22.2H275v44.5h11.1
			C300.7,1074.8,308,1067.4,308,1052.5z"/>
	</g>
	<g>
		<path class="st2" d="M17.7,431.3c-1-1-1.5-2.3-1.5-4.1v-52.5c0-1.7,0.5-3.1,1.5-4c1-1,2.4-1.4,4.1-1.4h32.5c1.7,0,3.1,0.4,4,1.2
			c1,0.8,1.4,1.9,1.4,3.3c0,1.5-0.5,2.7-1.4,3.5c-1,0.8-2.3,1.2-4,1.2H27.6v17.5h24.9c1.7,0,3.1,0.4,4.1,1.2c1,0.8,1.4,1.9,1.4,3.4
			c0,1.4-0.5,2.6-1.4,3.3c-1,0.8-2.3,1.2-4.1,1.2H27.6v18.5h26.7c1.7,0,3.1,0.4,4,1.2c1,0.8,1.4,2,1.4,3.5c0,1.4-0.5,2.6-1.4,3.3
			c-1,0.8-2.3,1.2-4,1.2H21.8C20.1,432.8,18.7,432.3,17.7,431.3z"/>
	</g>
	<g>
		<path class="st2" d="M911.1,431.4c-1.1-1.1-1.6-2.5-1.6-4.2v-52.6c0-1.7,0.5-3.1,1.5-4c1-1,2.4-1.4,4.1-1.4h31.6
			c3.7,0,5.5,1.6,5.5,4.7c0,3.1-1.8,4.6-5.5,4.6h-25.7v17.3h23.9c3.7,0,5.5,1.6,5.5,4.7c0,3.1-1.8,4.6-5.5,4.6h-23.9v22.3
			c0,1.7-0.5,3.1-1.5,4.2c-1,1.1-2.4,1.6-4.1,1.6S912.1,432.5,911.1,431.4z"/>
	</g>
	<g>
		<path class="st2" d="M1205.5,31.2c0.8,0.8,1.3,1.9,1.3,3.2v19.4c0,2.8-0.4,4.7-1.1,5.8c-0.7,1.1-2.2,2.1-4.4,2.8
			c-2.4,0.8-5.2,1.5-8.4,2c-3.2,0.5-6.2,0.7-9.2,0.7c-6.5,0-12.2-1.3-17-3.9c-4.8-2.6-8.5-6.3-11-11.2c-2.6-4.9-3.8-10.7-3.8-17.5
			c0-6.7,1.3-12.4,3.8-17.3c2.5-4.9,6.2-8.6,10.8-11.3c4.7-2.6,10.2-3.9,16.6-3.9c8.5,0,15.4,2.3,20.8,6.8c0.7,0.7,1.2,1.3,1.6,2
			c0.3,0.7,0.5,1.4,0.5,2.3c0,1.3-0.4,2.4-1.1,3.3s-1.6,1.4-2.6,1.4c-0.7,0-1.3-0.1-1.8-0.3c-0.5-0.2-1.2-0.6-1.9-1
			c-2.6-1.9-5.1-3.2-7.4-3.9c-2.3-0.7-4.9-1.1-7.7-1.1c-6.5,0-11.5,1.9-14.8,5.8c-3.3,3.9-5,9.6-5,17.2c0,15.6,6.8,23.4,20.5,23.4
			c4.1,0,8.2-0.6,12.2-1.7V38.3h-10.2c-1.4,0-2.6-0.4-3.4-1.1c-0.8-0.7-1.2-1.7-1.2-3.1c0-1.3,0.4-2.3,1.2-3.1
			c0.8-0.7,1.9-1.1,3.4-1.1h15.9C1203.6,30,1204.7,30.4,1205.5,31.2z"/>
	</g>
	<g>
		<path class="st2" d="M301.1,1.9c1,1.1,1.5,2.4,1.5,4.2v52.8c0,1.7-0.5,3.1-1.6,4.2c-1.1,1.1-2.4,1.6-4.1,1.6
			c-1.7,0-3.1-0.5-4.1-1.6c-1-1.1-1.5-2.5-1.5-4.2V36.7h-32.5v22.2c0,1.7-0.5,3.1-1.6,4.2c-1.1,1.1-2.4,1.6-4.2,1.6
			c-1.7,0-3-0.5-4.1-1.6c-1.1-1.1-1.6-2.5-1.6-4.2V6.1c0-1.7,0.5-3.1,1.5-4.2c1-1,2.4-1.6,4.1-1.6c1.7,0,3.1,0.5,4.2,1.6
			c1,1.1,1.6,2.4,1.6,4.2v21.2h32.5V6.1c0-1.7,0.5-3.1,1.5-4.2c1-1,2.4-1.6,4.1-1.6C298.7,0.3,300.1,0.8,301.1,1.9z"/>
	</g>
	<g>
		<path class="st3" d="M508.2,1359.5c3,3,4.5,7.6,4.5,13.8v22c0,1.6-0.5,2.9-1.4,3.8c-1,0.9-2.3,1.4-4,1.4c-1.6,0-2.8-0.5-3.8-1.4
			c-1-1-1.5-2.2-1.5-3.8v-2c-1,2.3-2.6,4.2-4.8,5.5c-2.2,1.3-4.7,2-7.6,2c-2.9,0-5.6-0.6-8-1.8c-2.4-1.2-4.3-2.8-5.7-5
			c-1.4-2.1-2.1-4.4-2.1-7c0-3.2,0.8-5.8,2.5-7.7c1.6-1.9,4.3-3.2,8.1-4c3.7-0.8,8.8-1.3,15.4-1.3h2.3v-2.1c0-2.9-0.6-5.1-1.9-6.4
			c-1.3-1.4-3.3-2-6.1-2c-1.7,0-3.5,0.3-5.3,0.8c-1.8,0.5-3.9,1.2-6.4,2.2c-1.6,0.8-2.7,1.2-3.4,1.2c-1.1,0-2-0.4-2.7-1.2
			c-0.7-0.8-1-1.8-1-3.1c0-1,0.3-1.9,0.8-2.7c0.5-0.7,1.4-1.5,2.6-2.1c2.1-1.1,4.6-2,7.5-2.7c2.9-0.7,5.8-1,8.6-1
			C500.7,1355,505.2,1356.5,508.2,1359.5z M499.1,1389.7c1.9-2,2.8-4.6,2.8-7.8v-1.9h-1.6c-4,0-7.1,0.2-9.4,0.5
			c-2.2,0.4-3.8,1-4.8,1.9c-1,0.9-1.4,2.1-1.4,3.7c0,1.9,0.7,3.5,2,4.7c1.4,1.2,3,1.8,5,1.8C494.8,1392.7,497.2,1391.7,499.1,1389.7
			z"/>
	</g>
	<g>
		<path class="st3" d="M1083,1210c2.9,1.9,5.2,4.5,6.9,7.9c1.6,3.4,2.5,7.4,2.5,12c0,4.6-0.8,8.6-2.5,12.1c-1.7,3.5-4,6.2-6.9,8.1
			c-3,1.9-6.3,2.9-10.1,2.9c-3.2,0-6-0.7-8.5-2.1c-2.5-1.4-4.4-3.3-5.7-5.8v2.3c0,1.6-0.5,2.9-1.5,3.9c-1,1-2.4,1.4-4,1.4
			c-1.7,0-3-0.5-4-1.4c-1-1-1.5-2.3-1.5-3.9v-53.8c0-1.6,0.5-2.8,1.6-3.8c1-1,2.4-1.4,4.1-1.4s3,0.5,4.1,1.4c1,0.9,1.5,2.1,1.5,3.7
			v21.2c1.3-2.4,3.2-4.2,5.7-5.5c2.5-1.3,5.3-1.9,8.4-1.9C1076.6,1207.2,1080,1208.1,1083,1210z M1078.1,1240.5c2-2.5,3-6.1,3-10.6
			c0-4.5-1-7.9-2.9-10.3c-2-2.4-4.7-3.6-8.3-3.6s-6.4,1.2-8.3,3.6c-2,2.4-2.9,5.9-2.9,10.5c0,4.6,1,8.1,2.9,10.5
			c1.9,2.5,4.7,3.7,8.3,3.7C1073.4,1244.3,1076.1,1243,1078.1,1240.5z"/>
	</g>
	<g>
		<path class="st3" d="M1163.3,586.6c-3.3-1.9-5.9-4.5-7.7-7.9c-1.8-3.4-2.7-7.4-2.7-12c0-4.6,0.9-8.6,2.8-12.1
			c1.9-3.5,4.5-6.2,8-8.1c3.4-1.9,7.3-2.9,11.8-2.9c2.3,0,4.7,0.3,7.1,1c2.4,0.7,4.5,1.6,6.3,2.7c1.9,1.3,2.9,2.9,2.9,4.8
			c0,1.3-0.3,2.4-0.9,3.2s-1.5,1.2-2.5,1.2c-0.7,0-1.3-0.1-2.1-0.4c-0.7-0.3-1.4-0.7-2.2-1.1c-1.3-0.8-2.6-1.4-3.8-1.8
			c-1.2-0.4-2.6-0.7-4.1-0.7c-3.7,0-6.6,1.2-8.6,3.6c-2,2.4-3,5.9-3,10.5c0,4.5,1,8,3,10.4c2,2.4,4.9,3.6,8.6,3.6
			c1.5,0,2.8-0.2,4-0.7c1.2-0.5,2.5-1.1,3.9-1.8c0.9-0.5,1.7-0.9,2.3-1.2c0.7-0.3,1.3-0.4,2-0.4c1,0,1.8,0.4,2.4,1.3
			c0.7,0.8,1,1.9,1,3.1c0,1-0.2,1.9-0.7,2.7c-0.5,0.8-1.2,1.4-2.2,2c-1.9,1.2-4,2.1-6.5,2.8c-2.5,0.7-5,1-7.6,1
			C1170.5,589.3,1166.6,588.4,1163.3,586.6z"/>
	</g>
</g>
</svg>
