<?xml version="1.0" encoding="UTF-8"?> <!-- Generator: Adobe Illustrator 22.1.0, SVG Export Plug-In . SVG Version: 6.00 Build 0) --> <svg xmlns="http://www.w3.org/2000/svg" xmlns:xlink="http://www.w3.org/1999/xlink" version="1.1" x="0px" y="0px" viewBox="0 0 1191.7 1401.8" style="enable-background:new 0 0 1191.7 1401.8;" xml:space="preserve"> <style type="text/css"> .st0{fill:none;stroke:#FF4528;stroke-width:8;stroke-linecap:round;stroke-linejoin:round;stroke-miterlimit:10;} .st1{fill:#00D59E;} .st2{fill:#0093FF;} .st3{fill:none;stroke:#FF4528;stroke-width:6;stroke-linecap:round;stroke-linejoin:round;stroke-miterlimit:10;} </style> <g id="Warstwa_4"> <polyline class="st0" points="86.7,426 763.7,426 1105.7,174 "></polyline> <g> <path class="st1" d="M1183.3,143.4c1,1.1,1.5,2.4,1.5,4.2v52.8c0,1.7-0.5,3.1-1.6,4.2c-1.1,1.1-2.4,1.6-4.1,1.6 c-1.7,0-3.1-0.5-4.1-1.6c-1-1.1-1.5-2.5-1.5-4.2v-22.2H1141v22.2c0,1.7-0.5,3.1-1.6,4.2c-1.1,1.1-2.4,1.6-4.2,1.6 c-1.7,0-3-0.5-4.1-1.6c-1.1-1.1-1.6-2.5-1.6-4.2v-52.8c0-1.7,0.5-3.1,1.5-4.2c1-1,2.4-1.6,4.1-1.6s3.1,0.5,4.2,1.6 c1,1.1,1.6,2.4,1.6,4.2v21.2h32.5v-21.2c0-1.7,0.5-3.1,1.5-4.2c1-1,2.4-1.6,4.1-1.6S1182.3,142.3,1183.3,143.4z"></path> </g> <g> <path class="st1" d="M642.6,103c-1.1-1.1-1.6-2.5-1.6-4.2V45.9c0-1.7,0.5-3.1,1.6-4.2c1-1,2.4-1.6,4.2-1.6c1.8,0,3.2,0.5,4.3,1.6 c1,1.1,1.6,2.4,1.6,4.2v52.8c0,1.7-0.5,3.1-1.6,4.2c-1.1,1.1-2.5,1.6-4.3,1.6C645,104.6,643.6,104,642.6,103z"></path> </g> <g> <path class="st1" d="M357.5,155.3c0-1.4,0.4-2.5,1.1-3.3c0.7-0.7,1.9-1.2,3.6-1.3l2.9-0.2c2.5-0.1,4.3-0.9,5.6-2.3 s1.9-3.6,1.9-6.6v-40.2c0-1.7,0.5-3.1,1.6-4.2c1-1,2.4-1.6,4.2-1.6c1.8,0,3.2,0.5,4.3,1.6c1,1.1,1.6,2.4,1.6,4.2v40.2 c0,11.3-5.6,17.4-16.8,18.3l-2.9,0.2C359.8,160.3,357.5,158.7,357.5,155.3z"></path> </g> <g> <path class="st2" d="M1185.9,648.5v22.1c0,1.7-0.5,3-1.5,4s-2.4,1.4-4.1,1.4c-1.7,0-3.1-0.5-4.1-1.4c-1-1-1.5-2.3-1.5-4v-22.1 c0-3.2-0.6-5.5-1.9-7c-1.3-1.5-3.3-2.2-6.1-2.2c-3.2,0-5.8,1-7.8,3.1c-2,2-2.9,4.8-2.9,8.2v20.1c0,1.7-0.5,3-1.5,4 c-1,1-2.4,1.4-4.1,1.4s-3.1-0.5-4.1-1.4s-1.5-2.3-1.5-4v-53.8c0-1.6,0.5-2.8,1.6-3.8c1-1,2.4-1.4,4.1-1.4s3,0.4,4.1,1.4 c1,0.9,1.5,2.1,1.5,3.7v21c1.5-2.3,3.5-4.1,6-5.4c2.5-1.2,5.3-1.8,8.5-1.8C1180.7,630.4,1185.9,636.4,1185.9,648.5z"></path> </g> </g> <g id="Warstwa_3"> <polygon class="st0" points="86.7,1346 768.7,1348 1101.7,1095 1105.7,174 682.7,4 339.7,83 86.7,426 "></polygon> <g> <path class="st1" d="M62.9,1396.8c0,1.4-0.6,2.6-1.7,3.5c-1.1,1-2.4,1.4-3.8,1.4c-1,0-1.9-0.3-2.7-0.8c-0.8-0.5-1.5-1.3-2-2.4 l-5.4-12.1H15.7l-5.4,12.1c-0.5,1.1-1.1,1.9-2,2.4c-0.8,0.5-1.8,0.8-2.8,0.8c-1.4,0-2.6-0.5-3.8-1.4c-1.1-1-1.7-2.1-1.7-3.5 c0-0.8,0.2-1.6,0.5-2.3l24.8-53.4c0.5-1.2,1.4-2.1,2.5-2.7c1.1-0.6,2.3-0.9,3.6-0.9c1.3,0,2.4,0.3,3.6,0.9 c1.1,0.6,1.9,1.5,2.5,2.7l24.9,53.4C62.7,1395.3,62.9,1396.1,62.9,1396.8z M19.6,1377.6h23.8l-11.9-26.7L19.6,1377.6z"></path> </g> <g> <path class="st1" d="M854.6,1374.2c2,2.7,3,6,3,9.9c0,5.4-1.9,9.6-5.8,12.7c-3.9,3.1-9.2,4.6-16,4.6h-23.2c-1.7,0-3.1-0.5-4.1-1.4 c-1-1-1.5-2.3-1.5-4v-52.5c0-1.7,0.5-3.1,1.5-4c1-1,2.4-1.4,4.1-1.4h22.3c6.6,0,11.8,1.5,15.5,4.4c3.7,2.9,5.6,7,5.6,12.2 c0,3.4-0.9,6.3-2.7,8.7c-1.8,2.5-4.2,4.3-7.3,5.4C849.7,1369.6,852.6,1371.5,854.6,1374.2z M818.4,1364.6H833c8,0,12-3,12-8.9 c0-3-1-5.2-3-6.7s-5-2.2-9-2.2h-14.7V1364.6z M843.7,1390.1c1.9-1.5,2.9-3.8,2.9-7c0-3.2-1-5.5-2.9-7.1c-2-1.6-5-2.3-9.1-2.3 h-16.2v18.7h16.2C838.8,1392.3,841.8,1391.6,843.7,1390.1z"></path> </g> <g> <path class="st1" d="M1153.1,1132.5c-4.6-2.6-8.1-6.4-10.6-11.3c-2.5-4.9-3.7-10.7-3.7-17.3c0-6.6,1.2-12.3,3.7-17.2 c2.5-4.9,6-8.7,10.6-11.3c4.6-2.6,9.9-4,16.1-4c4,0,7.7,0.6,11.2,1.8c3.5,1.2,6.6,2.9,9.3,5.1c0.8,0.6,1.3,1.2,1.6,1.9 c0.3,0.7,0.5,1.5,0.5,2.4c0,1.3-0.4,2.4-1.1,3.3c-0.7,0.9-1.6,1.3-2.6,1.3c-1.2,0-2.4-0.4-3.7-1.3c-2.6-1.9-5-3.3-7.2-4 c-2.2-0.8-4.7-1.1-7.4-1.1c-6.2,0-11,2-14.2,5.8c-3.2,3.9-4.8,9.6-4.8,17.2c0,7.6,1.6,13.4,4.8,17.3c3.2,3.9,7.9,5.9,14.2,5.9 c2.6,0,5-0.4,7.2-1.2c2.2-0.8,4.7-2.1,7.4-4c0.6-0.4,1.2-0.7,1.8-0.9c0.6-0.2,1.2-0.4,1.9-0.4c1,0,1.9,0.5,2.6,1.4 c0.7,0.9,1.1,2,1.1,3.3c0,0.9-0.2,1.7-0.5,2.4c-0.3,0.7-0.8,1.3-1.6,1.9c-2.7,2.2-5.8,3.9-9.3,5.1c-3.5,1.2-7.2,1.8-11.2,1.8 C1163,1136.5,1157.7,1135.2,1153.1,1132.5z"></path> </g> <g> <path class="st1" d="M270.2,1003.4c-1-1-1.5-2.3-1.5-4v-52.5c0-1.7,0.5-3.1,1.5-4c1-1,2.4-1.4,4.1-1.4h32.5c1.7,0,3.1,0.4,4,1.2 c1,0.8,1.4,1.9,1.4,3.3c0,1.5-0.5,2.7-1.4,3.5c-1,0.8-2.3,1.2-4,1.2h-26.7V968H305c1.7,0,3.1,0.4,4,1.2c1,0.8,1.4,1.9,1.4,3.4 c0,1.4-0.5,2.6-1.4,3.3c-1,0.8-2.3,1.2-4,1.2h-24.9v18.5h26.7c1.7,0,3.1,0.4,4,1.2c1,0.8,1.4,2,1.4,3.5c0,1.4-0.5,2.6-1.4,3.3 c-1,0.8-2.3,1.2-4,1.2h-32.5C272.6,1004.8,271.2,1004.4,270.2,1003.4z"></path> </g> <g> <path class="st1" d="M609.5,917.3c-1-1-1.5-2.3-1.5-4v-52.5c0-1.7,0.5-3.1,1.5-4c1-1,2.4-1.4,4.1-1.4h17.8 c10.4,0,18.4,2.8,24.2,8.3c5.7,5.6,8.6,13.3,8.6,23.4c0,10.1-2.9,17.9-8.6,23.4c-5.7,5.6-13.8,8.3-24.2,8.3h-17.8 C611.9,918.7,610.5,918.2,609.5,917.3z M652.6,887c0-14.8-7.3-22.2-21.9-22.2h-11.1v44.5h11.1C645.3,909.3,652.6,901.8,652.6,887z "></path> </g> <g> <path class="st1" d="M45.6,392.9c-1.1-1.1-1.6-2.5-1.6-4.2V336c0-1.7,0.5-3.1,1.5-4c1-1,2.4-1.4,4.1-1.4h31.6 c3.7,0,5.5,1.6,5.5,4.7c0,3.1-1.8,4.6-5.5,4.6H55.5v17.3h23.9c3.7,0,5.5,1.6,5.5,4.7c0,3.1-1.8,4.6-5.5,4.6H55.5v22.3 c0,1.7-0.5,3.1-1.5,4.2c-1,1.1-2.4,1.6-4.1,1.6S46.7,394,45.6,392.9z"></path> </g> <g> <path class="st1" d="M767.5,360.7c0.8,0.8,1.3,1.9,1.3,3.2v19.4c0,2.8-0.4,4.7-1.1,5.8c-0.7,1.1-2.2,2.1-4.4,2.8 c-2.4,0.8-5.2,1.5-8.4,2c-3.2,0.5-6.2,0.7-9.2,0.7c-6.5,0-12.2-1.3-17-3.9c-4.8-2.6-8.5-6.3-11-11.2c-2.6-4.9-3.8-10.7-3.8-17.5 c0-6.7,1.3-12.4,3.8-17.3c2.5-4.9,6.2-8.6,10.8-11.3c4.7-2.6,10.2-3.9,16.6-3.9c8.5,0,15.4,2.3,20.8,6.8c0.7,0.7,1.2,1.3,1.6,2 c0.3,0.7,0.5,1.4,0.5,2.3c0,1.3-0.4,2.4-1.1,3.3s-1.6,1.4-2.6,1.4c-0.7,0-1.3-0.1-1.8-0.3c-0.5-0.2-1.2-0.6-1.9-1 c-2.6-1.9-5.1-3.2-7.4-3.9c-2.3-0.7-4.9-1.1-7.7-1.1c-6.5,0-11.5,1.9-14.8,5.8c-3.3,3.9-5,9.6-5,17.2c0,15.6,6.8,23.4,20.5,23.4 c4.1,0,8.2-0.6,12.2-1.7v-15.9h-10.2c-1.4,0-2.6-0.4-3.4-1.1c-0.8-0.7-1.2-1.7-1.2-3.1c0-1.3,0.4-2.3,1.2-3.1 c0.8-0.7,1.9-1.1,3.4-1.1h15.9C765.5,359.4,766.6,359.8,767.5,360.7z"></path> </g> </g> <g id="Warstwa_5"> <line class="st0" x1="763.7" y1="426" x2="768.7" y2="1348"></line> <polyline class="st3" points="86.7,1346 341.7,1014 682.7,927 1101.7,1095 "></polyline> </g> <g id="Warstwa_6"> <line class="st3" x1="682.7" y1="4" x2="682.7" y2="927"></line> <line class="st3" x1="339.7" y1="83" x2="341.7" y2="1014"></line> </g> </svg> 