<?xml version="1.0" encoding="utf-8"?>
<!-- Generator: Adobe Illustrator 22.1.0, SVG Export Plug-In . SVG Version: 6.00 Build 0)  -->
<svg version="1.1" id="Warstwa_1" xmlns="http://www.w3.org/2000/svg" xmlns:xlink="http://www.w3.org/1999/xlink" x="0px" y="0px"
	 viewBox="0 0 1306 1306" style="enable-background:new 0 0 1306 1306;" xml:space="preserve">
<style type="text/css">
	.st0{fill:none;stroke:#0093FF;stroke-width:8;stroke-linecap:round;stroke-linejoin:round;stroke-miterlimit:10;}
	.st1{fill:#0093FF;stroke:#0093FF;stroke-miterlimit:10;}
	.st2{fill:#FF4528;}
	.st3{fill:none;stroke:#FF4528;stroke-width:12;stroke-linecap:round;stroke-linejoin:round;stroke-miterlimit:10;}
	
		.st4{opacity:0.9;fill:none;stroke:#FF4528;stroke-width:12;stroke-linecap:round;stroke-linejoin:round;stroke-miterlimit:10;enable-background:new    ;}
</style>
<g id="Warstwa_4">
	<line class="st0" x1="653" y1="653.1" x2="1300" y2="653"/>
	<g>
		<path class="st1" d="M970.1,582.2c0.9,0.8,1.3,2,1.3,3.5c0,1.6-0.4,2.8-1.2,3.6s-2.2,1.3-4.2,1.5l-2.7,0.3
			c-3.5,0.4-6.1,1.6-7.8,3.6s-2.5,4.6-2.5,7.7v18.9c0,1.7-0.5,3.1-1.6,4s-2.4,1.4-4.1,1.4s-3-0.5-4-1.4s-1.6-2.3-1.6-4v-34.8
			c0-1.7,0.5-3,1.6-3.9c1-0.9,2.4-1.4,3.9-1.4c1.6,0,2.8,0.4,3.8,1.3c1,0.9,1.4,2.1,1.4,3.7v3.6c1.1-2.6,2.8-4.7,5.1-6.1
			s4.8-2.3,7.5-2.4l1.3-0.1C968,581,969.2,581.4,970.1,582.2z"/>
	</g>
	<g>
		<path class="st2" d="M593,727.7c-4.5-2.6-8-6.4-10.5-11.3c-2.5-4.9-3.7-10.7-3.7-17.3s1.2-12.3,3.6-17.2
			c2.4-4.9,5.9-8.7,10.5-11.3s9.9-4,16.1-4c6.2,0,11.5,1.3,16.1,4c4.5,2.6,8,6.4,10.4,11.3c2.4,4.9,3.6,10.6,3.6,17.2
			c0,6.6-1.2,12.4-3.7,17.3c-2.5,4.9-6,8.7-10.5,11.3s-9.9,4-16,4C602.9,731.7,597.6,730.4,593,727.7z M622.7,716.4
			c3.3-4,4.9-9.8,4.9-17.3s-1.6-13.2-4.9-17.2c-3.3-4-7.8-6-13.6-6c-5.9,0-10.5,2-13.7,6c-3.3,4-4.9,9.7-4.9,17.2s1.6,13.3,4.9,17.3
			c3.3,4,7.8,6,13.7,6C614.9,722.4,619.5,720.4,622.7,716.4z"/>
	</g>
</g>
<g id="Warstwa_2_1_">
	<circle class="st3" cx="653" cy="653" r="647"/>
	<ellipse class="st4" cx="653" cy="653" rx="647" ry="250.8"/>
</g>
<g id="Warstwa_3">
	<g>
		<g>
			<path class="st2" d="M653,664.5c14.7,0,14.7-22.8,0-22.8S638.3,664.5,653,664.5L653,664.5z"/>
		</g>
	</g>
</g>
</svg>
