<?xml version="1.0" encoding="UTF-8"?> <!-- Generator: Adobe Illustrator 22.1.0, SVG Export Plug-In . SVG Version: 6.00 Build 0) --> <svg xmlns="http://www.w3.org/2000/svg" xmlns:xlink="http://www.w3.org/1999/xlink" version="1.1" x="0px" y="0px" viewBox="0 0 1226.2 1459.1" style="enable-background:new 0 0 1226.2 1459.1;" xml:space="preserve"> <style type="text/css"> .st0{fill:none;stroke:#FF4528;stroke-width:8;stroke-linecap:round;stroke-linejoin:round;stroke-miterlimit:10;} .st1{fill:none;stroke:#00D59E;stroke-width:8;stroke-linecap:round;stroke-linejoin:round;stroke-miterlimit:10;} .st2{fill:#FF4528;} .st3{fill:#6973CA;} .st4{fill:#00D59E;} </style> <g id="Warstwa_2"> <polygon class="st0" points="31.5,1377.4 784.5,1369.4 1150.5,1095.4 592.5,91.4 "></polygon> </g> <g id="Warstwa_4"> <polyline class="st0" points="31.5,1377.4 308.5,1007.4 686.5,912.4 1144.5,1094.4 "></polyline> <polyline class="st0" points="686.5,912.4 592.5,91.4 308.5,1007.4 "></polyline> </g> <g id="Warstwa_6"> <line class="st1" x1="597.5" y1="108" x2="597.5" y2="1117.5"></line> <g> <g> <path class="st2" d="M597.6,1130.9c16,0,16-24.8,0-24.8C581.6,1106.1,581.6,1130.9,597.6,1130.9L597.6,1130.9z"></path> </g> </g> </g> <g id="Warstwa_5"> <line class="st0" x1="594.5" y1="94" x2="782" y2="1366"></line> <g> <path class="st3" d="M62.9,1454.2c0,1.4-0.6,2.6-1.7,3.5c-1.1,1-2.4,1.4-3.8,1.4c-1,0-1.9-0.3-2.7-0.8c-0.8-0.5-1.5-1.3-2-2.4 l-5.4-12.1H15.7l-5.4,12.1c-0.5,1.1-1.1,1.9-2,2.4c-0.8,0.5-1.8,0.8-2.8,0.8c-1.4,0-2.6-0.5-3.8-1.4c-1.1-1-1.7-2.1-1.7-3.5 c0-0.8,0.2-1.6,0.5-2.3l24.8-53.4c0.5-1.2,1.4-2.1,2.5-2.7c1.1-0.6,2.3-0.9,3.6-0.9c1.3,0,2.4,0.3,3.6,0.9 c1.1,0.6,1.9,1.5,2.5,2.7l24.9,53.4C62.7,1452.6,62.9,1453.4,62.9,1454.2z M19.6,1434.9h23.8l-11.9-26.7L19.6,1434.9z"></path> </g> <g> <path class="st3" d="M245.1,1006c-1-1-1.5-2.3-1.5-4v-52.5c0-1.7,0.5-3.1,1.5-4c1-1,2.4-1.4,4.1-1.4h32.5c1.7,0,3.1,0.4,4,1.2 c1,0.8,1.4,1.9,1.4,3.3c0,1.5-0.5,2.7-1.4,3.5c-1,0.8-2.3,1.2-4,1.2h-26.7v17.5h24.9c1.7,0,3.1,0.4,4.1,1.2c1,0.8,1.4,1.9,1.4,3.4 c0,1.4-0.5,2.6-1.4,3.3c-1,0.8-2.3,1.2-4.1,1.2h-24.9v18.5h26.7c1.7,0,3.1,0.4,4,1.2c1,0.8,1.4,2,1.4,3.5c0,1.4-0.5,2.6-1.4,3.3 c-1,0.8-2.3,1.2-4,1.2h-32.5C247.4,1007.4,246,1006.9,245.1,1006z"></path> </g> <g> <path class="st3" d="M612,904c-1-1-1.5-2.3-1.5-4v-52.5c0-1.7,0.5-3.1,1.5-4c1-1,2.4-1.4,4.1-1.4H634c10.4,0,18.4,2.8,24.2,8.3 c5.7,5.6,8.6,13.3,8.6,23.4c0,10.1-2.9,17.9-8.6,23.4c-5.7,5.6-13.8,8.3-24.2,8.3h-17.8C614.4,905.4,613,904.9,612,904z M655.1,873.6c0-14.8-7.3-22.2-21.9-22.2h-11.1V896h11.1C647.8,896,655.1,888.5,655.1,873.6z"></path> </g> <g> <path class="st3" d="M1187.6,1125.3c-4.6-2.6-8.1-6.4-10.6-11.3c-2.5-4.9-3.7-10.7-3.7-17.3c0-6.6,1.2-12.3,3.7-17.2 c2.5-4.9,6-8.7,10.6-11.3c4.6-2.6,9.9-4,16.1-4c4,0,7.7,0.6,11.2,1.8c3.5,1.2,6.6,2.9,9.3,5.1c0.8,0.6,1.3,1.2,1.6,1.9 c0.3,0.7,0.5,1.5,0.5,2.4c0,1.3-0.4,2.4-1.1,3.3c-0.7,0.9-1.6,1.3-2.6,1.3c-1.2,0-2.4-0.4-3.7-1.3c-2.6-1.9-5-3.3-7.2-4 c-2.2-0.8-4.7-1.1-7.4-1.1c-6.2,0-11,2-14.2,5.8c-3.2,3.9-4.8,9.6-4.8,17.2c0,7.6,1.6,13.4,4.8,17.3c3.2,3.9,7.9,5.9,14.2,5.9 c2.6,0,5-0.4,7.2-1.2c2.2-0.8,4.7-2.1,7.4-4c0.6-0.4,1.2-0.7,1.8-0.9c0.6-0.2,1.2-0.4,1.9-0.4c1,0,1.9,0.5,2.6,1.4 c0.7,0.9,1.1,2,1.1,3.3c0,0.9-0.2,1.7-0.5,2.4c-0.3,0.7-0.8,1.3-1.6,1.9c-2.7,2.2-5.8,3.9-9.3,5.1c-3.5,1.2-7.2,1.8-11.2,1.8 C1197.5,1129.3,1192.2,1128,1187.6,1125.3z"></path> </g> <g> <path class="st3" d="M807.3,1431.5c2,2.7,3,6,3,9.9c0,5.4-1.9,9.6-5.8,12.7c-3.9,3.1-9.2,4.6-16,4.6h-23.2c-1.7,0-3.1-0.5-4.1-1.4 c-1-1-1.5-2.3-1.5-4v-52.5c0-1.7,0.5-3.1,1.5-4c1-1,2.4-1.4,4.1-1.4h22.3c6.6,0,11.8,1.5,15.5,4.4c3.7,2.9,5.6,7,5.6,12.2 c0,3.4-0.9,6.3-2.7,8.7c-1.8,2.5-4.2,4.3-7.3,5.4C802.5,1426.9,805.3,1428.8,807.3,1431.5z M771.1,1422h14.7c8,0,12-3,12-8.9 c0-3-1-5.2-3-6.7s-5-2.2-9-2.2h-14.7V1422z M796.5,1447.4c1.9-1.5,2.9-3.8,2.9-7c0-3.2-1-5.5-2.9-7.1c-2-1.6-5-2.3-9.1-2.3h-16.2 v18.7h16.2C791.5,1449.7,794.6,1448.9,796.5,1447.4z"></path> </g> <g> <path class="st2" d="M621.6,1190.4c-4.5-2.6-8-6.4-10.5-11.3c-2.5-4.9-3.7-10.7-3.7-17.3c0-6.6,1.2-12.3,3.6-17.2 c2.4-4.9,5.9-8.7,10.5-11.3c4.6-2.6,9.9-4,16.1-4c6.2,0,11.5,1.3,16.1,4c4.5,2.6,8,6.4,10.4,11.3c2.4,4.9,3.6,10.6,3.6,17.2 c0,6.6-1.2,12.4-3.7,17.3c-2.5,4.9-6,8.7-10.5,11.3c-4.5,2.6-9.9,4-16,4C631.5,1194.4,626.1,1193,621.6,1190.4z M651.3,1179.1 c3.3-4,4.9-9.8,4.9-17.3s-1.6-13.2-4.9-17.2c-3.3-4-7.8-6-13.6-6c-5.9,0-10.5,2-13.7,6c-3.3,4-4.9,9.7-4.9,17.2s1.6,13.3,4.9,17.3 c3.3,4,7.8,6,13.7,6C643.5,1185.1,648,1183.1,651.3,1179.1z"></path> </g> <g> <path class="st3" d="M584.6,63.2c-4.1-1.2-7.5-2.9-10-5c-1.4-1-2.1-2.5-2.1-4.3c0-1.3,0.4-2.4,1.1-3.3c0.7-0.9,1.6-1.4,2.7-1.4 c1.1,0,2.3,0.4,3.7,1.3c2.6,1.9,5.3,3.2,8.1,4c2.8,0.8,5.9,1.3,9.4,1.3c4.4,0,7.7-0.8,10.1-2.3c2.3-1.5,3.5-3.8,3.5-6.7 c0-2.3-1.1-4-3.3-5.3c-2.2-1.2-5.8-2.4-10.9-3.6c-5.3-1.1-9.6-2.5-12.9-4c-3.3-1.5-5.8-3.4-7.5-5.8c-1.7-2.3-2.5-5.3-2.5-8.9 c0-3.7,1-7,3.1-10c2.1-2.9,5-5.2,8.8-6.9c3.7-1.6,8-2.5,12.6-2.5c8.6,0,15.6,2.3,21,6.8c0.8,0.7,1.3,1.3,1.7,1.9 c0.3,0.6,0.5,1.4,0.5,2.4c0,1.3-0.4,2.4-1.1,3.3c-0.8,0.9-1.6,1.4-2.7,1.4c-0.6,0-1.2-0.1-1.7-0.3c-0.5-0.2-1.2-0.5-2-1 c-2.5-1.8-4.8-3.1-7.2-4c-2.3-0.9-5.1-1.3-8.5-1.3c-4.1,0-7.3,0.8-9.7,2.5c-2.4,1.7-3.6,3.9-3.6,6.9c0,2.5,1,4.4,3.1,5.7 c2.1,1.3,5.7,2.6,10.7,3.7c5.3,1.2,9.7,2.5,13,4c3.3,1.5,5.9,3.3,7.6,5.6c1.8,2.3,2.7,5.1,2.7,8.6c0,3.7-1,7-3.1,9.9 c-2.1,2.9-5,5.1-8.7,6.7c-3.8,1.6-8.1,2.4-12.9,2.4C593.1,65.1,588.7,64.5,584.6,63.2z"></path> </g> <g> <path class="st4" d="M574.3,624.5v22.1c0,1.7-0.5,3-1.5,4c-1,1-2.4,1.4-4.1,1.4c-1.7,0-3.1-0.5-4.1-1.4c-1-1-1.5-2.3-1.5-4v-22.1 c0-3.2-0.6-5.5-1.9-7c-1.3-1.5-3.3-2.2-6.1-2.2c-3.2,0-5.8,1-7.8,3.1c-2,2-2.9,4.8-2.9,8.2v20.1c0,1.7-0.5,3-1.5,4 c-1,1-2.4,1.4-4.1,1.4c-1.7,0-3.1-0.5-4.1-1.4c-1-1-1.5-2.3-1.5-4v-53.8c0-1.6,0.5-2.8,1.6-3.8c1-1,2.4-1.4,4.1-1.4 c1.7,0,3,0.4,4,1.4c1,0.9,1.5,2.1,1.5,3.7v21c1.5-2.3,3.5-4.1,6-5.4c2.5-1.2,5.3-1.8,8.5-1.8C569.1,606.4,574.3,612.5,574.3,624.5 z"></path> </g> </g> </svg> 