<?xml version="1.0" encoding="UTF-8"?> <!-- Generator: Adobe Illustrator 22.1.0, SVG Export Plug-In . SVG Version: 6.00 Build 0) --> <svg xmlns="http://www.w3.org/2000/svg" xmlns:xlink="http://www.w3.org/1999/xlink" version="1.1" x="0px" y="0px" viewBox="0 0 729.3 1298.7" style="enable-background:new 0 0 729.3 1298.7;" xml:space="preserve"> <style type="text/css"> .st0{fill:none;stroke:#00D59E;stroke-width:6;stroke-linecap:round;stroke-linejoin:round;stroke-miterlimit:10;} .st1{fill:#00D59E;} .st2{fill:none;stroke:#FF4528;stroke-width:8;stroke-miterlimit:10;} .st3{fill:#FF4528;} .st4{fill:none;stroke:#FF4528;stroke-width:8;stroke-linecap:round;stroke-linejoin:round;stroke-miterlimit:10;} .st5{fill:#0093FF;stroke:#0093FF;stroke-miterlimit:10;} </style> <g id="Warstwa_4"> <path class="st0" d="M380,1130c230.7,0.7,345.3-0.7,345.3-0.7"></path> <g> <g> <path class="st1" d="M380,1139.9c12.8,0,12.8-19.8,0-19.8C367.2,1120.1,367.2,1139.9,380,1139.9L380,1139.9z"></path> </g> </g> </g> <g id="Warstwa_2"> <ellipse class="st2" cx="364.7" cy="1129.3" rx="360.7" ry="165.3"></ellipse> <ellipse class="st2" cx="364.7" cy="169.3" rx="360.7" ry="165.3"></ellipse> <g> <path class="st3" d="M299.1,1157.9c-4.5-2.6-8-6.4-10.5-11.3c-2.5-4.9-3.7-10.7-3.7-17.3c0-6.6,1.2-12.3,3.6-17.2 c2.4-4.9,5.9-8.7,10.5-11.3c4.6-2.6,9.9-4,16.1-4c6.2,0,11.5,1.3,16.1,4c4.5,2.6,8,6.4,10.4,11.3c2.4,4.9,3.6,10.6,3.6,17.2 c0,6.6-1.2,12.4-3.7,17.3c-2.5,4.9-6,8.7-10.5,11.3c-4.5,2.6-9.9,4-16,4C309,1161.9,303.6,1160.5,299.1,1157.9z M328.8,1146.6 c3.3-4,4.9-9.8,4.9-17.3c0-7.5-1.6-13.2-4.9-17.2c-3.3-4-7.8-6-13.6-6c-5.9,0-10.5,2-13.7,6c-3.3,4-4.9,9.7-4.9,17.2 c0,7.5,1.6,13.3,4.9,17.3c3.3,4,7.8,6,13.7,6C321,1152.6,325.5,1150.6,328.8,1146.6z"></path> </g> </g> <g id="Warstwa_3"> <line class="st4" x1="4" y1="169.3" x2="4" y2="1129.3"></line> <line class="st2" x1="725" y1="181.3" x2="725" y2="1141.3"></line> <g> <path class="st5" d="M693.9,666v22.1c0,1.7-0.5,3-1.5,4c-1,1-2.4,1.4-4.1,1.4c-1.7,0-3.1-0.5-4.1-1.4c-1-1-1.5-2.3-1.5-4V666 c0-3.2-0.6-5.5-1.9-7c-1.3-1.5-3.3-2.2-6.1-2.2c-3.2,0-5.8,1-7.8,3.1c-2,2-2.9,4.8-2.9,8.2v20.1c0,1.7-0.5,3-1.5,4 c-1,1-2.4,1.4-4.1,1.4c-1.7,0-3.1-0.5-4.1-1.4c-1-1-1.5-2.3-1.5-4v-53.8c0-1.6,0.5-2.8,1.6-3.8c1-1,2.4-1.4,4.1-1.4 c1.7,0,3,0.4,4,1.4c1,0.9,1.5,2.1,1.5,3.7v21c1.5-2.3,3.5-4.1,6-5.4c2.5-1.2,5.3-1.8,8.5-1.8C688.7,647.9,693.9,654,693.9,666z"></path> </g> <g> <path class="st1" d="M551.9,1061.6c0.9,0.8,1.3,2,1.3,3.5c0,1.6-0.4,2.8-1.2,3.6c-0.8,0.8-2.2,1.3-4.2,1.5l-2.7,0.3 c-3.5,0.4-6.1,1.6-7.8,3.6c-1.7,2-2.5,4.6-2.5,7.7v18.9c0,1.7-0.5,3.1-1.6,4c-1.1,0.9-2.4,1.4-4,1.4c-1.6,0-3-0.5-4-1.4 c-1.1-0.9-1.6-2.3-1.6-4v-34.8c0-1.7,0.5-3,1.6-3.9c1-0.9,2.4-1.4,3.9-1.4c1.6,0,2.8,0.4,3.8,1.3c1,0.9,1.4,2.1,1.4,3.7v3.6 c1.1-2.6,2.8-4.7,5.1-6.1c2.3-1.4,4.8-2.3,7.5-2.4l1.3-0.1C549.8,1060.5,551,1060.8,551.9,1061.6z"></path> </g> </g> </svg> 