<?xml version="1.0" encoding="UTF-8"?> <!-- Generator: Adobe Illustrator 22.1.0, SVG Export Plug-In . SVG Version: 6.00 Build 0) --> <svg xmlns="http://www.w3.org/2000/svg" xmlns:xlink="http://www.w3.org/1999/xlink" version="1.1" x="0px" y="0px" viewBox="0 0 726.9 1165.9" style="enable-background:new 0 0 726.9 1165.9;" xml:space="preserve"> <style type="text/css"> .st0{fill:none;stroke:#00D59E;stroke-width:6;stroke-linecap:round;stroke-linejoin:round;stroke-miterlimit:10;} .st1{fill:#00D59E;stroke:#00D59E;stroke-miterlimit:10;} .st2{fill:none;stroke:#FF4528;stroke-width:8;stroke-linecap:round;stroke-linejoin:round;stroke-miterlimit:10;} .st3{fill:none;stroke:#0093FF;stroke-width:8;stroke-linecap:round;stroke-linejoin:round;stroke-miterlimit:10;} .st4{fill:#00D59E;} .st5{fill:#FF4528;} .st6{fill:#FF4528;stroke:#FF4528;stroke-miterlimit:10;} .st7{fill:#0093FF;} </style> <g id="Warstwa_6"> <line class="st0" x1="369.9" y1="996.1" x2="722.5" y2="996.1"></line> <g> <path class="st1" d="M559.6,935.3c0.9,0.8,1.3,2,1.3,3.5c0,1.6-0.4,2.8-1.2,3.6c-0.8,0.8-2.2,1.3-4.2,1.5l-2.7,0.3 c-3.5,0.4-6.1,1.6-7.8,3.6c-1.7,2-2.5,4.6-2.5,7.7v18.9c0,1.7-0.5,3.1-1.6,4c-1.1,0.9-2.4,1.4-4.1,1.4s-3-0.5-4-1.4 c-1-0.9-1.6-2.3-1.6-4v-34.8c0-1.7,0.5-3,1.6-3.9c1-0.9,2.4-1.4,3.9-1.4c1.6,0,2.8,0.4,3.8,1.3c1,0.9,1.4,2.1,1.4,3.7v3.6 c1.1-2.6,2.8-4.7,5.1-6.1c2.3-1.4,4.8-2.3,7.5-2.4l1.3-0.1C557.5,934.2,558.7,934.5,559.6,935.3z"></path> </g> </g> <g id="Warstwa_2"> <ellipse class="st2" cx="363.9" cy="1003.9" rx="359" ry="158"></ellipse> <line class="st3" x1="370.9" y1="4" x2="370.9" y2="994.9"></line> </g> <g id="Warstwa_5"> <polyline class="st2" points="722.5,993.9 370.9,4 4,1004.4 "></polyline> <path class="st4" d="M369.9,994.9"></path> </g> <g id="Warstwa_3"> <g> <g> <path class="st5" d="M369.9,1004.3c12.1,0,12.2-18.9,0-18.9C357.8,985.5,357.7,1004.3,369.9,1004.3L369.9,1004.3z"></path> </g> </g> <g> <path class="st6" d="M295.9,1023.5c-4.5-2.6-8-6.4-10.5-11.3c-2.5-4.9-3.7-10.7-3.7-17.3c0-6.6,1.2-12.3,3.6-17.2 c2.4-4.9,5.9-8.7,10.5-11.3c4.6-2.6,9.9-4,16.1-4c6.2,0,11.5,1.3,16.1,4c4.5,2.6,8,6.4,10.4,11.3c2.4,4.9,3.6,10.6,3.6,17.2 c0,6.6-1.2,12.4-3.7,17.3c-2.5,4.9-6,8.7-10.5,11.3c-4.5,2.6-9.9,4-16,4C305.8,1027.4,300.5,1026.1,295.9,1023.5z M325.6,1012.1 c3.3-4,4.9-9.8,4.9-17.3s-1.6-13.2-4.9-17.2c-3.3-4-7.8-6-13.6-6c-5.9,0-10.5,2-13.7,6c-3.3,4-4.9,9.7-4.9,17.2s1.6,13.3,4.9,17.3 c3.3,4,7.8,6,13.7,6C317.8,1018.1,322.4,1016.1,325.6,1012.1z"></path> </g> <g> <path class="st7" d="M444.8,554.6v22.1c0,1.7-0.5,3-1.5,4s-2.4,1.4-4.1,1.4c-1.7,0-3.1-0.5-4.1-1.4c-1-1-1.5-2.3-1.5-4v-22.1 c0-3.2-0.6-5.5-1.9-7c-1.3-1.5-3.3-2.2-6.1-2.2c-3.2,0-5.8,1-7.8,3.1c-2,2-2.9,4.8-2.9,8.2v20.1c0,1.7-0.5,3-1.5,4 c-1,1-2.4,1.4-4.1,1.4s-3.1-0.5-4.1-1.4s-1.5-2.3-1.5-4v-53.8c0-1.6,0.5-2.8,1.6-3.8c1-1,2.4-1.4,4.1-1.4s3,0.5,4.1,1.4 c1,0.9,1.5,2.1,1.5,3.7v21c1.5-2.3,3.5-4.1,6-5.4c2.5-1.2,5.3-1.8,8.5-1.8C439.6,536.5,444.8,542.5,444.8,554.6z"></path> </g> </g> </svg> 