<?xml version="1.0" encoding="UTF-8"?> <!-- Generator: Adobe Illustrator 22.1.0, SVG Export Plug-In . SVG Version: 6.00 Build 0) --> <svg xmlns="http://www.w3.org/2000/svg" xmlns:xlink="http://www.w3.org/1999/xlink" version="1.1" id="Warstwa_2" x="0px" y="0px" viewBox="0 0 1538.9 830.3" style="enable-background:new 0 0 1538.9 830.3;" xml:space="preserve"> <style type="text/css"> .st0{fill:none;stroke:#FF4528;stroke-width:10;stroke-linecap:round;stroke-linejoin:round;stroke-miterlimit:10;} .st1{fill:#FF4528;} </style> <polygon class="st0" points="72.5,740.2 1269.5,103.2 1458.5,737.2 "></polygon> <g> <path class="st1" d="M83.9,823.5c0,1.8-0.7,3.4-2.2,4.7c-1.5,1.3-3.2,1.9-5.1,1.9c-1.3,0-2.5-0.3-3.6-1c-1.1-0.7-2-1.7-2.6-3.2 l-7.2-16.1H20.9l-7.2,16.1c-0.6,1.4-1.5,2.5-2.6,3.2c-1.1,0.7-2.4,1-3.7,1c-1.8,0-3.5-0.6-5-1.9c-1.5-1.3-2.3-2.8-2.3-4.7 c0-1,0.2-2.1,0.7-3.1l33.1-71.2c0.7-1.6,1.8-2.8,3.3-3.7c1.5-0.8,3.1-1.3,4.7-1.3s3.3,0.4,4.7,1.3c1.5,0.8,2.6,2.1,3.3,3.7 l33.2,71.2C83.6,821.4,83.9,822.4,83.9,823.5z M26.2,797.8h31.7L42,762.2L26.2,797.8z"></path> </g> <g> <path class="st1" d="M1534.8,794.1c2.7,3.6,4,8,4,13.2c0,7.2-2.6,12.8-7.7,16.9c-5.2,4.1-12.3,6.1-21.3,6.1h-31 c-2.3,0-4.1-0.6-5.5-1.9c-1.3-1.3-2-3.1-2-5.4v-70c0-2.3,0.7-4.1,2-5.4c1.3-1.3,3.1-1.9,5.5-1.9h29.8c8.8,0,15.7,1.9,20.7,5.8 c5,3.9,7.5,9.3,7.5,16.3c0,4.5-1.2,8.4-3.5,11.6c-2.4,3.3-5.6,5.7-9.8,7.2C1528.4,788,1532.2,790.5,1534.8,794.1z M1486.5,781.4 h19.6c10.6,0,16-4,16-11.9c0-4-1.3-7-4-8.9c-2.6-1.9-6.6-2.9-12-2.9h-19.6V781.4z M1520.4,815.3c2.6-2,3.8-5.1,3.8-9.4 c0-4.2-1.3-7.4-3.9-9.5c-2.6-2.1-6.7-3.1-12.2-3.1h-21.6v25h21.6C1513.7,818.3,1517.8,817.3,1520.4,815.3z"></path> </g> <g> <path class="st1" d="M1253.2,81.5c-6.1-3.5-10.8-8.6-14.1-15.1c-3.3-6.6-4.9-14.2-4.9-23c0-8.8,1.6-16.5,4.9-23 c3.3-6.5,8-11.5,14.1-15.1c6.1-3.5,13.3-5.3,21.4-5.3c5.3,0,10.2,0.8,14.9,2.3c4.6,1.6,8.8,3.8,12.4,6.8c1,0.8,1.8,1.6,2.2,2.5 c0.4,0.9,0.6,2,0.6,3.2c0,1.8-0.5,3.2-1.4,4.4c-1,1.2-2.1,1.8-3.5,1.8c-1.6,0-3.2-0.6-4.9-1.7c-3.4-2.6-6.6-4.3-9.6-5.3 c-3-1-6.2-1.5-9.8-1.5c-8.3,0-14.6,2.6-18.9,7.8c-4.3,5.2-6.4,12.8-6.4,22.9c0,10.2,2.1,17.8,6.4,23c4.3,5.2,10.6,7.8,18.9,7.8 c3.4,0,6.6-0.5,9.5-1.6c2.9-1,6.2-2.8,9.9-5.3c0.8-0.5,1.6-0.9,2.4-1.2c0.8-0.3,1.6-0.5,2.5-0.5c1.4,0,2.5,0.6,3.5,1.8 c1,1.2,1.4,2.7,1.4,4.4c0,1.2-0.2,2.3-0.6,3.2c-0.4,0.9-1.1,1.8-2.2,2.6c-3.6,3-7.7,5.2-12.4,6.8c-4.6,1.6-9.6,2.3-14.9,2.3 C1266.5,86.8,1259.4,85,1253.2,81.5z"></path> </g> </svg> 