<?xml version="1.0" encoding="UTF-8"?> <!-- Generator: Adobe Illustrator 22.1.0, SVG Export Plug-In . SVG Version: 6.00 Build 0) --> <svg xmlns="http://www.w3.org/2000/svg" xmlns:xlink="http://www.w3.org/1999/xlink" version="1.1" id="Warstwa_2" x="0px" y="0px" viewBox="0 0 1528.6 829.3" style="enable-background:new 0 0 1528.6 829.3;" xml:space="preserve"> <style type="text/css"> .st0{fill:none;stroke:#00D59E;stroke-width:10;stroke-linecap:round;stroke-linejoin:round;stroke-miterlimit:10;} .st1{fill:#00D59E;} </style> <polygon class="st0" points="252.1,649.9 1119.9,188.1 1257,647.8 "></polygon> <g> <path class="st1" d="M180.4,744.9c-1.3-1.3-2-3.1-2-5.4v-70c0-2.3,0.7-4.1,2-5.4c1.3-1.3,3.1-1.9,5.5-1.9h23.8 c13.8,0,24.6,3.7,32.2,11.1c7.6,7.4,11.5,17.8,11.5,31.1c0,13.4-3.8,23.9-11.5,31.3c-7.6,7.4-18.4,11.1-32.2,11.1h-23.8 C183.6,746.8,181.7,746.2,180.4,744.9z M237.8,704.4c0-19.8-9.7-29.6-29.2-29.6h-14.8v59.4h14.8 C228.1,734.2,237.8,724.3,237.8,704.4z"></path> </g> <g> <path class="st1" d="M1283.4,733.3c-1.3-1.3-2-3.1-2-5.4v-70c0-2.3,0.7-4.1,2-5.4c1.3-1.3,3.1-1.9,5.5-1.9h43.3 c2.3,0,4.1,0.5,5.4,1.6c1.3,1,1.9,2.5,1.9,4.4c0,2-0.6,3.5-1.9,4.6c-1.3,1.1-3.1,1.6-5.4,1.6h-35.6v23.3h33.2 c2.3,0,4.1,0.5,5.4,1.6c1.3,1,1.9,2.6,1.9,4.6c0,1.9-0.6,3.4-1.9,4.4c-1.3,1-3.1,1.6-5.4,1.6h-33.2V723h35.6c2.3,0,4.1,0.5,5.4,1.6 c1.3,1.1,1.9,2.6,1.9,4.6c0,1.9-0.6,3.4-1.9,4.4c-1.3,1-3.1,1.6-5.4,1.6h-43.3C1286.6,735.2,1284.8,734.6,1283.4,733.3z"></path> </g> <g> <path class="st1" d="M1114.4,163.6c-1.4-1.4-2.1-3.3-2.1-5.6V87.7c0-2.3,0.7-4.1,2-5.4c1.3-1.3,3.1-1.9,5.5-1.9h42.1 c4.9,0,7.3,2.1,7.3,6.2c0,4.1-2.4,6.1-7.3,6.1h-34.3v23h31.9c4.9,0,7.3,2.1,7.3,6.2c0,4.1-2.4,6.1-7.3,6.1h-31.9v29.8 c0,2.3-0.7,4.2-2,5.6c-1.4,1.4-3.2,2.2-5.5,2.2C1117.7,165.7,1115.8,165,1114.4,163.6z"></path> </g> </svg> 