<?xml version="1.0" encoding="UTF-8"?> <!-- Generator: Adobe Illustrator 21.0.0, SVG Export Plug-In . SVG Version: 6.00 Build 0) --> <svg xmlns="http://www.w3.org/2000/svg" xmlns:xlink="http://www.w3.org/1999/xlink" version="1.1" x="0px" y="0px" viewBox="0 0 903.8 548.3" style="enable-background:new 0 0 903.8 548.3;" xml:space="preserve"> <style type="text/css"> .st0{fill:#D9EFFF;stroke:#0093FF;stroke-width:4;stroke-miterlimit:10;} .st1{fill:#FFF7E3;stroke:#FFB200;stroke-width:4;stroke-miterlimit:10;} .st2{fill:#E1E8FF;stroke:#0093FF;stroke-width:4;stroke-miterlimit:10;} .st3{fill:none;stroke:#FF4528;stroke-width:8;stroke-linecap:round;stroke-linejoin:round;stroke-miterlimit:10;} .st4{fill:#FF4528;} .st5{fill:#00D59E;} .st6{fill:#0093FF;} .st7{fill:#FFB200;} .st8{fill:#0093FF;stroke:#0093FF;stroke-miterlimit:10;} </style> <g id="Layer_8"> </g> <g id="Layer_6"> <path class="st0" d="M730.4,462.6h106.2V354.9C836.7,354.9,740.8,354.6,730.4,462.6z"></path> <path class="st0" d="M899.4,537.5"></path> </g> <g id="Layer_5"> <path class="st1" d="M709.1,103l127.5-71.2v147.7C836.7,179.6,750.2,181.4,709.1,103"></path> </g> <g id="Layer_4"> <path class="st2" d="M215.7,379.6L67,463.5l170.5,1.1C237.5,464.5,240.4,413.8,215.7,379.6"></path> </g> <g id="Layer_2"> <polygon class="st3" points="64.6,462.6 836.7,31.9 836.7,462.6 "></polygon> <g> <path class="st4" d="M50.3,484.4c0,1.1-0.4,2-1.3,2.8c-0.9,0.8-1.9,1.2-3.1,1.2c-0.8,0-1.5-0.2-2.2-0.6c-0.7-0.4-1.2-1-1.6-1.9 l-4.3-9.6H12.5l-4.3,9.6c-0.4,0.9-0.9,1.5-1.6,1.9c-0.7,0.4-1.4,0.6-2.2,0.6c-1.1,0-2.1-0.4-3-1.2c-0.9-0.8-1.4-1.7-1.4-2.8 c0-0.6,0.1-1.2,0.4-1.9l19.9-42.7c0.4-1,1.1-1.7,2-2.2c0.9-0.5,1.8-0.8,2.8-0.8c1,0,2,0.3,2.8,0.8c0.9,0.5,1.5,1.2,2,2.2 l19.9,42.7C50.2,483.2,50.3,483.8,50.3,484.4z M15.7,469h19l-9.5-21.4L15.7,469z"></path> </g> <g> <path class="st4" d="M898.5,29c1.6,2.2,2.4,4.8,2.4,7.9c0,4.3-1.5,7.7-4.6,10.2c-3.1,2.4-7.4,3.7-12.8,3.7H865 c-1.4,0-2.5-0.4-3.3-1.2c-0.8-0.8-1.2-1.8-1.2-3.2v-42c0-1.4,0.4-2.5,1.2-3.2c0.8-0.8,1.9-1.2,3.3-1.2h17.9 c5.3,0,9.4,1.2,12.4,3.5c3,2.3,4.5,5.6,4.5,9.8c0,2.7-0.7,5-2.1,7c-1.4,2-3.4,3.4-5.9,4.3C894.7,25.4,896.9,26.9,898.5,29z M869.6,21.4h11.7c6.4,0,9.6-2.4,9.6-7.1c0-2.4-0.8-4.2-2.4-5.3s-4-1.7-7.2-1.7h-11.7V21.4z M889.9,41.8c1.5-1.2,2.3-3.1,2.3-5.6 c0-2.5-0.8-4.4-2.3-5.7c-1.6-1.2-4-1.9-7.3-1.9h-13v15h13C885.9,43.6,888.3,43,889.9,41.8z"></path> </g> <g> <path class="st4" d="M870.7,485.5c-3.7-2.1-6.5-5.1-8.5-9.1c-2-3.9-3-8.5-3-13.8c0-5.3,1-9.9,3-13.8c2-3.9,4.8-6.9,8.5-9 c3.7-2.1,8-3.2,12.9-3.2c3.2,0,6.1,0.5,8.9,1.4c2.8,0.9,5.3,2.3,7.4,4.1c0.6,0.5,1.1,1,1.3,1.5c0.2,0.5,0.4,1.2,0.4,1.9 c0,1.1-0.3,1.9-0.9,2.7c-0.6,0.7-1.3,1.1-2.1,1.1c-1,0-1.9-0.3-3-1c-2.1-1.5-4-2.6-5.8-3.2c-1.8-0.6-3.7-0.9-5.9-0.9 c-5,0-8.8,1.6-11.3,4.7c-2.6,3.1-3.9,7.7-3.9,13.8c0,6.1,1.3,10.7,3.9,13.8c2.6,3.1,6.3,4.7,11.3,4.7c2.1,0,4-0.3,5.7-0.9 c1.8-0.6,3.7-1.7,5.9-3.2c0.5-0.3,1-0.5,1.4-0.7c0.5-0.2,1-0.3,1.5-0.3c0.8,0,1.5,0.4,2.1,1.1c0.6,0.7,0.9,1.6,0.9,2.7 c0,0.7-0.1,1.4-0.4,1.9c-0.2,0.6-0.7,1.1-1.3,1.5c-2.2,1.8-4.6,3.1-7.4,4.1c-2.8,0.9-5.8,1.4-8.9,1.4 C878.7,488.7,874.4,487.6,870.7,485.5z"></path> </g> <g> <path class="st5" d="M508.5,513.9c2.4,1.5,4.2,3.6,5.5,6.3c1.3,2.7,2,5.9,2,9.6c0,3.6-0.7,6.9-2,9.7c-1.3,2.8-3.2,5-5.5,6.5 c-2.4,1.5-5.1,2.3-8.1,2.3c-2.5,0-4.8-0.6-6.8-1.7c-2-1.1-3.5-2.6-4.6-4.6v1.8c0,1.3-0.4,2.3-1.2,3.1c-0.8,0.8-1.9,1.2-3.2,1.2 c-1.3,0-2.4-0.4-3.2-1.2c-0.8-0.8-1.2-1.8-1.2-3.1v-43.1c0-1.2,0.4-2.3,1.3-3c0.8-0.8,1.9-1.2,3.3-1.2c1.3,0,2.4,0.4,3.2,1.1 c0.8,0.7,1.2,1.7,1.2,3v17c1.1-1.9,2.6-3.4,4.5-4.4c2-1,4.2-1.5,6.7-1.5C503.5,511.7,506.2,512.4,508.5,513.9z M504.6,538.3 c1.6-2,2.4-4.8,2.4-8.5c0-3.6-0.8-6.4-2.3-8.3c-1.6-1.9-3.8-2.9-6.7-2.9c-2.9,0-5.1,1-6.7,2.9c-1.6,1.9-2.3,4.7-2.3,8.4 c0,3.6,0.8,6.5,2.3,8.4c1.6,2,3.8,3,6.7,3C500.8,541.3,503,540.3,504.6,538.3z"></path> </g> <g> <path class="st5" d="M416.9,214c-2.7-1.5-4.7-3.6-6.2-6.3c-1.4-2.7-2.2-5.9-2.2-9.6c0-3.6,0.8-6.9,2.3-9.7c1.5-2.8,3.6-5,6.4-6.5 c2.7-1.5,5.9-2.3,9.4-2.3c1.9,0,3.8,0.3,5.7,0.8c1.9,0.5,3.6,1.2,5,2.2c1.5,1,2.3,2.3,2.3,3.8c0,1.1-0.3,1.9-0.8,2.6 c-0.5,0.6-1.2,1-2,1c-0.5,0-1.1-0.1-1.7-0.4c-0.6-0.2-1.2-0.5-1.7-0.9c-1.1-0.6-2.1-1.1-3-1.5c-1-0.4-2.1-0.5-3.3-0.5 c-3,0-5.3,1-6.9,2.9c-1.6,1.9-2.4,4.7-2.4,8.4c0,3.6,0.8,6.4,2.4,8.3c1.6,1.9,3.9,2.9,6.9,2.9c1.2,0,2.3-0.2,3.2-0.5 s2-0.9,3.1-1.5c0.7-0.4,1.3-0.8,1.9-1c0.5-0.2,1.1-0.3,1.6-0.3c0.8,0,1.4,0.3,1.9,1c0.5,0.7,0.8,1.5,0.8,2.5 c0,0.8-0.2,1.5-0.5,2.1c-0.4,0.6-0.9,1.1-1.8,1.6c-1.5,1-3.2,1.7-5.2,2.3c-2,0.6-4,0.8-6,0.8C422.7,216.2,419.6,215.5,416.9,214z"></path> </g> <g> <path class="st5" d="M900.2,214.2c2.4,2.4,3.6,6.1,3.6,11.1v17.6c0,1.3-0.4,2.3-1.2,3.1c-0.8,0.7-1.8,1.1-3.2,1.1 c-1.2,0-2.3-0.4-3.1-1.2c-0.8-0.8-1.2-1.8-1.2-3v-1.6c-0.8,1.9-2.1,3.3-3.9,4.4c-1.8,1.1-3.8,1.6-6.1,1.6c-2.4,0-4.5-0.5-6.4-1.4 c-1.9-1-3.4-2.3-4.5-4c-1.1-1.7-1.7-3.6-1.7-5.6c0-2.6,0.7-4.6,2-6.1c1.3-1.5,3.5-2.6,6.4-3.2c3-0.7,7.1-1,12.3-1h1.8v-1.7 c0-2.4-0.5-4.1-1.5-5.1c-1-1.1-2.6-1.6-4.9-1.6c-1.4,0-2.8,0.2-4.2,0.6c-1.4,0.4-3.1,1-5.1,1.8c-1.2,0.6-2.2,0.9-2.7,0.9 c-0.9,0-1.6-0.3-2.1-0.9c-0.6-0.6-0.8-1.4-0.8-2.4c0-0.8,0.2-1.5,0.6-2.1c0.4-0.6,1.1-1.2,2.1-1.7c1.7-0.9,3.7-1.6,6-2.2 c2.3-0.5,4.6-0.8,6.9-0.8C894.2,210.6,897.8,211.8,900.2,214.2z M892.9,238.4c1.5-1.6,2.3-3.7,2.3-6.2v-1.5h-1.3 c-3.2,0-5.7,0.1-7.5,0.4c-1.8,0.3-3,0.8-3.8,1.5c-0.8,0.7-1.2,1.7-1.2,3c0,1.5,0.5,2.8,1.6,3.8c1.1,1,2.4,1.5,4,1.5 C889.5,240.8,891.4,240,892.9,238.4z"></path> </g> </g> <g id="Layer_7"> <g> <path class="st6" d="M194,417.1c-0.3,2.9-0.7,12.2-0.7,19.4c0,3.2,0.8,4.5,2.7,4.5l-0.4,3.5c-0.4,0.2-1.1,0.2-1.7,0.2 c-2.4,0-4.4-1.6-4.6-5.7h-0.2c-1.8,3.3-4.9,5.7-9.2,5.7c-6.4,0-11.1-5.4-11.1-13.6c0-8.8,5.8-14.7,12.1-14.7c3.9,0,6.9,2,8.3,5.3 h0.2c0.1-2.1,0.3-3.5,0.5-4.8H194z M173.8,431.2c0,5,2.6,9.7,7.3,9.7c3.4,0,6.4-3.3,7.2-6.8c0.3-1.2,0.3-2.3,0.3-3.8 c0-1.1,0-2-0.2-3c-0.7-3.6-3.4-6.9-6.9-6.9c-4.5,0-7.7,4.5-7.7,10.6V431.2z"></path> </g> </g> <g id="Layer_9"> <g> <path class="st7" d="M792.8,116.2v3.3c0,2.8,0.1,7,0.6,9h-4.1c-0.6-1.6-0.7-5-0.7-8.4V97.3c0-6.9,1.8-9.9,3.7-11.7 c1.6-1.6,3.9-2.6,7.1-2.6c5,0,8.7,3.5,8.7,8.6c0,3.8-2.2,6.7-4.5,7.7v0.2c3.8,0.7,7.3,3.9,7.3,9.4c0,6.7-5.1,10.3-10.3,10.3 C797.2,119.3,794.8,118.2,792.8,116.2L792.8,116.2z M792.8,111.9c1.1,1.8,3.6,4,7,4c4,0,6.8-2.9,6.8-6.9c0-4.8-3.3-7.2-7.7-7.4 c-0.4,0-0.9,0-1.3,0v-3c0.3,0,0.6,0,0.8,0c3.8-0.3,5.7-3.2,5.7-6.4c0-3.6-2.1-5.9-5.1-5.9c-4,0-6.2,3.5-6.2,10.4V111.9z"></path> </g> </g> <g id="Layer_10"> <circle class="st8" cx="801.6" cy="422" r="1.8"></circle> </g> </svg> 